<?xml version="1.0" encoding="utf-8"?>
<!-- Generator: Adobe Illustrator 21.0.0, SVG Export Plug-In . SVG Version: 6.00 Build 0)  -->
<svg version="1.1" id="图层_1" xmlns="http://www.w3.org/2000/svg" xmlns:xlink="http://www.w3.org/1999/xlink" x="0px" y="0px"
	 viewBox="0 0 550 144" style="enable-background:new 0 0 550 144;" xml:space="preserve">
<style type="text/css">
	.st0{fill:#FF3B30;}
</style>
<title>丰田海南</title>
<desc>Created with Sketch.</desc>
<g id="logo">
	<g id="丰田海南">
		<path id="丰田海南出行" class="st0" d="M46.4,49h24.4V38.7H42.7v-8.2h28.1V20.4h8.5v10.2H108v8.2H79.2V49h25.1v8.3H79.2
			v10.2H110v8.2H79.2v18.6h-8.5V75.8H40.3v-8.2h30.5V57.4H46.4V49z M187.1,24.7v68.4h-8.2v-5.2h-47.5v5.2h-8.2V24.7H187.1z
			 M131.3,79.9h19.4V59.7h-19.4V79.9z M158.9,79.9h19.9V59.7h-19.9V79.9z M131.3,52.1h19.4V32.6h-19.4V52.1z M158.9,32.6v19.4h19.9
			V32.6H158.9z M230.3,33.4c-1,1.6-2.1,3.2-3.1,4.6h39.4c-0.2,6.9-0.5,13-0.6,18.4h6.2v7.7h-6.5c-0.2,4.5-0.5,8.3-0.6,11.4h5.8v7.2
			h-6.4c-0.2,1.9-0.4,3.2-0.6,3.8c-0.8,2.6-2.3,4.6-4.5,5.8c-2.2,1.2-5.5,1.8-9.8,1.8c-2.2,0-4.9,0.1-7.8,0.1l-2.5-7.4
			c3.4,0.2,6.4,0.3,9.1,0.3c1.8,0,3.4-0.2,4.8-0.6c1.4-0.5,2.4-1.5,3.1-3c0-0.2,0.1-0.4,0.2-0.7h-37.8c1.3-6.3,2.4-12.6,3.2-18.6h-7
			v-7.7h7.9c0.5-4.8,0.9-9.6,1.1-14.2c-1.1,1.3-2.3,2.6-3.4,3.7l-5.3-6.4c5-4.7,9.3-11.4,13-20.1l8.3,1.8l-2,4.5h35.3v7.7H230.3z
			 M229.9,64.2c-0.6,4.1-1.2,7.9-1.9,11.4h16.4c-2.2-2.4-5.3-4.9-9-7.5l4.1-3.9H229.9z M245.9,75.6h11.3c0.2-3,0.3-6.9,0.6-11.4
			h-15.5c3.2,2.2,6,4.6,8.2,6.9L245.9,75.6z M258,56.5c0.1-3.5,0.2-7.2,0.4-11.2h-16.6c3.7,2.3,6.9,4.6,9.5,6.9l-4.4,4.3H258z
			 M241.2,45.3h-9.8c-0.2,3.9-0.5,7.7-0.8,11.2H245c-2.2-2.1-5.2-4.2-8.7-6.4L241.2,45.3z M205.3,21c4.7,3.4,8.7,6.7,11.9,10.2
			l-5.9,5.9c-2.8-3.2-6.8-6.6-11.9-10.3L205.3,21z M204,40.4c4.7,3.4,8.7,6.9,12,10.4l-5.9,5.9c-2.8-3.2-6.8-6.7-12-10.6L204,40.4z
			 M210,64.4l7.3,2.9c-3.2,9.3-6.9,17.9-10.9,26.1l-7.8-3.4C202.9,81.6,206.8,73,210,64.4z M279.1,26.6h32.6
			c0.3-2.4,0.6-4.8,0.9-7.1l8.5,1.2l-0.7,5.9h30.6v7.8h-32c-0.5,2.1-0.9,4.2-1.4,6.2h29.6v44c0,6.1-2.8,9.1-8.4,9.1h-7.4l-2.2-8.1
			l6.9,0.2c1.9,0,2.9-1.1,2.9-3.2V48.5h-47.7v45.8H283V40.6h26c0.5-2.1,0.9-4.2,1.3-6.2h-31.2V26.6z M307.4,49.4
			c1.5,2.6,3,5.7,4.2,9.2h6.8c1.6-3,3-6.1,4.2-9.4l7.5,2.7c-1.1,2.5-2.3,4.7-3.6,6.7h7.3v7.3h-14.7V72h16.8v7.3h-16.8V93h-8.2V79.3
			h-16.7V72h16.7v-6.1h-14.5v-7.3h7.2c-1.1-2.3-2.3-4.5-3.7-6.5L307.4,49.4z M415.2,47.3v-21h8.4v29h-24.3v26.9h19.9V61.3h8.4v32.5
			h-8.4v-3.5h-48.5v3.5h-8.4V61.3h8.4v20.9h19.9V55.3h-24.3v-29h8.4v21h15.9v-27h8.6v27H415.2z M468.4,24.5h39.4v8.2h-39.4V24.5z
			 M466.5,44.3h44.7v8.2h-12.3v33.5c0,5.3-3,7.9-8.9,7.9h-11.6l-1.8-8.2c3.7,0.3,7.2,0.6,10.6,0.6c2.2,0,3.3-0.8,3.3-2.4V52.6h-23.9
			V44.3z M454.5,20.7l7.6,3.6c-4.2,8.7-11.5,16.6-21.8,23.8l-2.6-8.4C445.2,34.3,450.8,28,454.5,20.7z M458.3,39.1l7.5,3.5
			c-2.1,4.2-4.7,8.2-7.9,12v39.7h-8.2V62.9c-2.7,2.2-5.7,4.5-8.7,6.6l-2.6-8.2C447.3,55,454,47.6,458.3,39.1z"/>
		<path id="Toyota-Mobility-Serv" class="st0" d="M53.5,112.4h-4.3v-2.6H61v2.6h-4.3V124h-3.1V112.4z M62.6,118.8
			c0,0.4,0,0.8,0.1,1.2c0.1,0.4,0.2,0.7,0.4,1.1c0.2,0.3,0.4,0.6,0.8,0.8c0.3,0.2,0.7,0.3,1.2,0.3s0.9-0.1,1.2-0.3s0.6-0.4,0.8-0.8
			c0.2-0.3,0.3-0.7,0.4-1.1c0.1-0.4,0.1-0.8,0.1-1.2c0-0.4,0-0.8-0.1-1.2s-0.2-0.8-0.4-1.1c-0.2-0.3-0.5-0.6-0.8-0.8
			c-0.3-0.2-0.7-0.3-1.2-0.3s-0.9,0.1-1.2,0.3c-0.3,0.2-0.6,0.4-0.8,0.8c-0.2,0.3-0.3,0.7-0.4,1.1C62.6,118,62.6,118.4,62.6,118.8z
			 M59.8,118.8c0-0.8,0.1-1.6,0.4-2.2c0.3-0.7,0.6-1.2,1.1-1.7c0.5-0.5,1-0.8,1.7-1.1c0.7-0.3,1.4-0.4,2.2-0.4s1.5,0.1,2.2,0.4
			c0.7,0.3,1.2,0.6,1.7,1.1s0.8,1,1.1,1.7c0.3,0.7,0.4,1.4,0.4,2.2c0,0.8-0.1,1.6-0.4,2.2s-0.6,1.2-1.1,1.7s-1,0.8-1.7,1.1
			s-1.4,0.4-2.2,0.4s-1.5-0.1-2.2-0.4c-0.7-0.3-1.2-0.6-1.7-1.1c-0.5-0.5-0.8-1-1.1-1.7S59.8,119.7,59.8,118.8z M77.4,125.3
			c-0.3,0.8-0.7,1.4-1.3,1.8s-1.3,0.5-2.3,0.5c-0.3,0-0.6,0-0.9,0c-0.3,0-0.6,0-0.9-0.1v-2.3c0.3,0,0.5,0.1,0.8,0.1
			c0.3,0,0.6,0,0.8,0c0.4,0,0.6-0.2,0.8-0.4c0.2-0.3,0.3-0.5,0.3-0.8c0-0.2,0-0.4-0.1-0.6l-3.6-9.7h3l2.3,7.1h0l2.3-7.1h2.9
			L77.4,125.3z M85.2,118.8c0,0.4,0,0.8,0.1,1.2c0.1,0.4,0.2,0.7,0.4,1.1c0.2,0.3,0.4,0.6,0.8,0.8s0.7,0.3,1.2,0.3
			c0.5,0,0.9-0.1,1.2-0.3c0.3-0.2,0.6-0.4,0.8-0.8c0.2-0.3,0.3-0.7,0.4-1.1c0.1-0.4,0.1-0.8,0.1-1.2c0-0.4,0-0.8-0.1-1.2
			s-0.2-0.8-0.4-1.1c-0.2-0.3-0.5-0.6-0.8-0.8c-0.3-0.2-0.7-0.3-1.2-0.3c-0.5,0-0.9,0.1-1.2,0.3c-0.3,0.2-0.6,0.4-0.8,0.8
			c-0.2,0.3-0.3,0.7-0.4,1.1S85.2,118.4,85.2,118.8z M82.4,118.8c0-0.8,0.1-1.6,0.4-2.2c0.3-0.7,0.6-1.2,1.1-1.7s1-0.8,1.7-1.1
			c0.7-0.3,1.4-0.4,2.2-0.4c0.8,0,1.6,0.1,2.2,0.4c0.7,0.3,1.2,0.6,1.7,1.1s0.8,1,1.1,1.7c0.3,0.7,0.4,1.4,0.4,2.2
			c0,0.8-0.1,1.6-0.4,2.2s-0.6,1.2-1.1,1.7s-1,0.8-1.7,1.1c-0.7,0.3-1.4,0.4-2.2,0.4c-0.8,0-1.5-0.1-2.2-0.4s-1.2-0.6-1.7-1.1
			s-0.8-1-1.1-1.7S82.4,119.7,82.4,118.8z M98.5,113.7h2.1v1.9h-2.1v5.1c0,0.5,0.1,0.8,0.2,1c0.2,0.2,0.5,0.2,1,0.2
			c0.2,0,0.3,0,0.5,0c0.1,0,0.3,0,0.4-0.1v2.2c-0.2,0-0.5,0.1-0.8,0.1c-0.3,0-0.6,0-0.9,0c-0.4,0-0.9,0-1.2-0.1
			c-0.4-0.1-0.7-0.2-1-0.3c-0.3-0.2-0.5-0.4-0.7-0.7c-0.2-0.3-0.3-0.7-0.3-1.3v-6.1h-1.7v-1.9h1.7v-3.1h2.8V113.7z M101.8,116.8
			c0-0.7,0.2-1.2,0.5-1.7s0.7-0.8,1.1-1.1c0.5-0.3,1-0.5,1.5-0.6c0.6-0.1,1.1-0.2,1.7-0.2c0.5,0,1,0,1.6,0.1c0.5,0.1,1,0.2,1.5,0.4
			s0.8,0.5,1.1,0.9c0.3,0.4,0.4,0.9,0.4,1.5v5.4c0,0.5,0,0.9,0.1,1.3c0.1,0.4,0.1,0.7,0.3,1h-2.9c-0.1-0.2-0.1-0.3-0.1-0.5
			c0-0.2-0.1-0.3-0.1-0.5c-0.5,0.5-1,0.8-1.6,1s-1.2,0.3-1.9,0.3c-0.5,0-1-0.1-1.4-0.2s-0.8-0.3-1.1-0.6c-0.3-0.3-0.6-0.6-0.8-1
			c-0.2-0.4-0.3-0.8-0.3-1.4c0-0.6,0.1-1.1,0.3-1.4c0.2-0.4,0.5-0.7,0.8-0.9s0.7-0.4,1.1-0.5c0.4-0.1,0.8-0.2,1.3-0.3
			s0.8-0.1,1.3-0.2c0.4,0,0.8-0.1,1.1-0.2c0.3-0.1,0.6-0.2,0.8-0.3s0.3-0.4,0.3-0.7c0-0.3,0-0.6-0.1-0.7c-0.1-0.2-0.2-0.3-0.4-0.4
			c-0.2-0.1-0.4-0.2-0.6-0.2s-0.5-0.1-0.7-0.1c-0.6,0-1,0.1-1.3,0.4s-0.5,0.6-0.6,1.2H101.8z M108.4,118.9c-0.1,0.1-0.3,0.2-0.4,0.2
			c-0.2,0.1-0.4,0.1-0.6,0.1c-0.2,0-0.4,0.1-0.7,0.1c-0.2,0-0.5,0.1-0.7,0.1c-0.2,0-0.4,0.1-0.6,0.2c-0.2,0.1-0.4,0.2-0.5,0.3
			s-0.3,0.3-0.4,0.4c-0.1,0.2-0.1,0.4-0.1,0.7c0,0.3,0,0.5,0.1,0.6c0.1,0.2,0.2,0.3,0.4,0.4s0.3,0.2,0.6,0.2s0.4,0.1,0.7,0.1
			c0.6,0,1-0.1,1.3-0.3c0.3-0.2,0.5-0.4,0.7-0.7s0.2-0.5,0.3-0.8s0-0.5,0-0.6V118.9z M119.3,109.7h4.4l3.3,9.8h0l3.2-9.8h4.4V124
			h-2.9v-10.1h0l-3.5,10.1h-2.4l-3.5-10h0v10h-2.9V109.7z M139.6,118.8c0,0.4,0,0.8,0.1,1.2c0.1,0.4,0.2,0.7,0.4,1.1
			c0.2,0.3,0.4,0.6,0.8,0.8c0.3,0.2,0.7,0.3,1.2,0.3s0.9-0.1,1.2-0.3c0.3-0.2,0.6-0.4,0.8-0.8c0.2-0.3,0.3-0.7,0.4-1.1
			c0.1-0.4,0.1-0.8,0.1-1.2c0-0.4,0-0.8-0.1-1.2c-0.1-0.4-0.2-0.8-0.4-1.1c-0.2-0.3-0.5-0.6-0.8-0.8c-0.3-0.2-0.7-0.3-1.2-0.3
			s-0.9,0.1-1.2,0.3c-0.3,0.2-0.6,0.4-0.8,0.8c-0.2,0.3-0.3,0.7-0.4,1.1S139.6,118.4,139.6,118.8z M136.8,118.8
			c0-0.8,0.1-1.6,0.4-2.2c0.3-0.7,0.6-1.2,1.1-1.7c0.5-0.5,1-0.8,1.7-1.1c0.7-0.3,1.4-0.4,2.2-0.4s1.6,0.1,2.2,0.4
			c0.7,0.3,1.2,0.6,1.7,1.1c0.5,0.5,0.8,1,1.1,1.7c0.3,0.7,0.4,1.4,0.4,2.2c0,0.8-0.1,1.6-0.4,2.2c-0.3,0.7-0.6,1.2-1.1,1.7
			c-0.5,0.5-1,0.8-1.7,1.1s-1.4,0.4-2.2,0.4s-1.5-0.1-2.2-0.4s-1.2-0.6-1.7-1.1c-0.5-0.5-0.8-1-1.1-1.7
			C136.9,120.4,136.8,119.7,136.8,118.8z M156.9,118.8c0-0.4,0-0.9-0.1-1.3s-0.2-0.8-0.4-1.1c-0.2-0.3-0.4-0.5-0.8-0.7
			s-0.7-0.3-1.1-0.3c-0.4,0-0.8,0.1-1.1,0.3s-0.6,0.4-0.8,0.7c-0.2,0.3-0.3,0.7-0.4,1.1s-0.1,0.8-0.1,1.3c0,0.4,0,0.8,0.1,1.2
			s0.2,0.8,0.4,1.1c0.2,0.3,0.5,0.6,0.8,0.7s0.7,0.3,1.1,0.3c0.4,0,0.8-0.1,1.1-0.3s0.6-0.4,0.8-0.7c0.2-0.3,0.3-0.7,0.4-1.1
			S156.9,119.3,156.9,118.8z M149.3,109.7h2.8v5.2h0c0.3-0.5,0.8-0.9,1.4-1.2s1.2-0.4,1.8-0.4c0.5,0,1,0.1,1.5,0.3
			c0.5,0.2,1,0.5,1.4,1s0.7,1,1,1.7c0.3,0.7,0.4,1.5,0.4,2.4s-0.1,1.8-0.4,2.4c-0.3,0.7-0.6,1.2-1,1.7s-0.9,0.8-1.4,1
			s-1,0.3-1.5,0.3c-0.8,0-1.4-0.1-2-0.4c-0.6-0.2-1.1-0.6-1.4-1.2h0v1.3h-2.7V109.7z M164.5,112.1h-2.8v-2.3h2.8V112.1z
			 M161.6,113.7h2.8V124h-2.8V113.7z M166.8,109.7h2.8V124h-2.8V109.7z M174.8,112.1H172v-2.3h2.8V112.1z M172,113.7h2.8V124H172
			V113.7z M180.6,113.7h2.1v1.9h-2.1v5.1c0,0.5,0.1,0.8,0.2,1s0.5,0.2,1,0.2c0.2,0,0.3,0,0.5,0s0.3,0,0.4-0.1v2.2
			c-0.2,0-0.5,0.1-0.8,0.1c-0.3,0-0.6,0-0.9,0c-0.4,0-0.9,0-1.2-0.1c-0.4-0.1-0.7-0.2-1-0.3c-0.3-0.2-0.5-0.4-0.7-0.7
			c-0.2-0.3-0.3-0.7-0.3-1.3v-6.1h-1.7v-1.9h1.7v-3.1h2.8V113.7z M189.2,125.3c-0.3,0.8-0.7,1.4-1.3,1.8c-0.5,0.4-1.3,0.5-2.3,0.5
			c-0.3,0-0.6,0-0.9,0c-0.3,0-0.6,0-0.9-0.1v-2.3c0.3,0,0.5,0.1,0.8,0.1c0.3,0,0.6,0,0.8,0c0.4,0,0.7-0.2,0.8-0.4
			c0.2-0.3,0.3-0.5,0.3-0.8c0-0.2,0-0.4-0.1-0.6l-3.6-9.7h3l2.3,7.1h0l2.3-7.1h2.9L189.2,125.3z M202.5,119.3c0,0.5,0.1,0.9,0.3,1.2
			c0.2,0.3,0.4,0.6,0.7,0.8c0.3,0.2,0.6,0.4,1,0.5s0.8,0.2,1.2,0.2c0.3,0,0.6,0,0.9-0.1c0.3,0,0.6-0.1,0.9-0.3
			c0.3-0.1,0.5-0.3,0.7-0.5c0.2-0.2,0.3-0.5,0.3-0.9c0-0.4-0.1-0.7-0.4-0.9s-0.6-0.4-1-0.6c-0.4-0.2-0.9-0.3-1.4-0.4
			c-0.5-0.1-1-0.3-1.5-0.4c-0.5-0.1-1.1-0.3-1.6-0.5c-0.5-0.2-1-0.4-1.4-0.8c-0.4-0.3-0.7-0.7-1-1.1c-0.2-0.5-0.4-1-0.4-1.7
			c0-0.7,0.2-1.4,0.5-1.9c0.3-0.5,0.7-1,1.2-1.3c0.5-0.4,1.1-0.6,1.7-0.8c0.6-0.2,1.3-0.3,1.9-0.3c0.7,0,1.5,0.1,2.1,0.2
			c0.7,0.2,1.3,0.4,1.8,0.8c0.5,0.4,1,0.8,1.3,1.4c0.3,0.6,0.5,1.3,0.5,2.1h-3c0-0.4-0.1-0.8-0.3-1.1c-0.2-0.3-0.4-0.5-0.6-0.7
			c-0.3-0.2-0.5-0.3-0.9-0.3c-0.3-0.1-0.7-0.1-1.1-0.1c-0.3,0-0.5,0-0.8,0.1c-0.3,0.1-0.5,0.1-0.7,0.3c-0.2,0.1-0.4,0.3-0.5,0.5
			c-0.1,0.2-0.2,0.5-0.2,0.8c0,0.3,0.1,0.5,0.2,0.7c0.1,0.2,0.3,0.3,0.6,0.5c0.3,0.1,0.7,0.3,1.3,0.4c0.6,0.1,1.3,0.3,2.2,0.6
			c0.3,0.1,0.6,0.2,1.1,0.3c0.5,0.1,0.9,0.4,1.4,0.7c0.5,0.3,0.9,0.7,1.2,1.2c0.3,0.5,0.5,1.2,0.5,2c0,0.7-0.1,1.3-0.4,1.8
			c-0.3,0.6-0.6,1-1.1,1.4c-0.5,0.4-1.1,0.7-1.9,1c-0.7,0.2-1.6,0.3-2.6,0.3c-0.8,0-1.6-0.1-2.3-0.3c-0.7-0.2-1.4-0.5-2-0.9
			c-0.6-0.4-1-0.9-1.4-1.6c-0.3-0.6-0.5-1.4-0.5-2.3H202.5z M220,117.7c-0.1-0.7-0.4-1.3-0.7-1.6s-0.9-0.6-1.6-0.6
			c-0.5,0-0.8,0.1-1.1,0.2c-0.3,0.2-0.5,0.3-0.7,0.6c-0.2,0.2-0.3,0.5-0.4,0.7s-0.1,0.5-0.1,0.7H220z M215.3,119.5
			c0,0.9,0.3,1.6,0.7,2c0.4,0.4,1,0.6,1.8,0.6c0.6,0,1.1-0.1,1.5-0.4s0.7-0.6,0.8-0.9h2.5c-0.4,1.2-1,2.1-1.8,2.7
			c-0.8,0.5-1.8,0.8-3,0.8c-0.8,0-1.5-0.1-2.2-0.4c-0.7-0.3-1.2-0.6-1.7-1.1s-0.8-1.1-1.1-1.7c-0.2-0.7-0.4-1.4-0.4-2.2
			c0-0.8,0.1-1.5,0.4-2.2c0.3-0.7,0.6-1.2,1.1-1.7c0.5-0.5,1-0.9,1.7-1.1c0.6-0.3,1.4-0.4,2.1-0.4c0.9,0,1.6,0.2,2.3,0.5
			s1.2,0.8,1.6,1.4c0.4,0.6,0.7,1.2,0.9,2c0.2,0.7,0.3,1.5,0.2,2.3H215.3z M224.5,113.7h2.7v1.9h0c0.1-0.3,0.3-0.6,0.5-0.9
			c0.2-0.3,0.5-0.5,0.8-0.7c0.3-0.2,0.6-0.3,0.9-0.4c0.3-0.1,0.7-0.2,1-0.2c0.2,0,0.4,0,0.6,0.1v2.6c-0.1,0-0.3-0.1-0.5-0.1
			c-0.2,0-0.4,0-0.5,0c-0.5,0-1,0.1-1.3,0.3s-0.7,0.4-0.9,0.7c-0.2,0.3-0.4,0.7-0.5,1.1c-0.1,0.4-0.1,0.8-0.1,1.3v4.7h-2.8V113.7z
			 M238,124h-3.2l-3.5-10.3h3l2.2,7.1h0l2.2-7.1h2.8L238,124z M245.6,112.1h-2.8v-2.3h2.8V112.1z M242.7,113.7h2.8V124h-2.8V113.7z
			 M254.9,117.3c-0.2-1.2-0.9-1.8-2.1-1.8c-0.5,0-0.8,0.1-1.1,0.3c-0.3,0.2-0.6,0.5-0.8,0.8c-0.2,0.3-0.3,0.7-0.4,1.1
			c-0.1,0.4-0.1,0.8-0.1,1.2c0,0.4,0,0.8,0.1,1.1c0.1,0.4,0.2,0.7,0.4,1.1c0.2,0.3,0.4,0.6,0.7,0.8c0.3,0.2,0.7,0.3,1.1,0.3
			c0.7,0,1.2-0.2,1.6-0.6s0.6-0.9,0.7-1.5h2.7c-0.2,1.4-0.7,2.4-1.6,3.1s-2,1.1-3.4,1.1c-0.8,0-1.5-0.1-2.1-0.4
			c-0.6-0.3-1.2-0.6-1.6-1.1s-0.8-1-1.1-1.7c-0.3-0.6-0.4-1.4-0.4-2.1c0-0.8,0.1-1.5,0.4-2.2c0.2-0.7,0.6-1.3,1-1.8s1-0.9,1.7-1.2
			c0.7-0.3,1.4-0.4,2.2-0.4c0.6,0,1.2,0.1,1.8,0.2c0.6,0.2,1.1,0.4,1.5,0.7c0.4,0.3,0.8,0.7,1.1,1.2s0.4,1.1,0.5,1.7H254.9z
			 M266.3,117.7c-0.1-0.7-0.4-1.3-0.7-1.6c-0.3-0.4-0.9-0.6-1.5-0.6c-0.5,0-0.8,0.1-1.1,0.2c-0.3,0.2-0.5,0.3-0.7,0.6
			s-0.3,0.5-0.4,0.7s-0.1,0.5-0.1,0.7H266.3z M261.6,119.5c0,0.9,0.3,1.6,0.7,2c0.4,0.4,1,0.6,1.8,0.6c0.6,0,1.1-0.1,1.5-0.4
			s0.7-0.6,0.8-0.9h2.5c-0.4,1.2-1,2.1-1.8,2.7c-0.8,0.5-1.8,0.8-3,0.8c-0.8,0-1.5-0.1-2.2-0.4c-0.7-0.3-1.2-0.6-1.7-1.1
			s-0.8-1.1-1-1.7c-0.2-0.7-0.4-1.4-0.4-2.2c0-0.8,0.1-1.5,0.4-2.2c0.3-0.7,0.6-1.2,1.1-1.7c0.5-0.5,1-0.9,1.7-1.1
			c0.6-0.3,1.4-0.4,2.1-0.4c0.9,0,1.6,0.2,2.3,0.5c0.7,0.3,1.2,0.8,1.6,1.4c0.4,0.6,0.7,1.2,0.9,2s0.3,1.5,0.2,2.3H261.6z
			 M273,120.6c0,0.3,0.1,0.6,0.2,0.8c0.1,0.2,0.3,0.4,0.5,0.5s0.4,0.2,0.7,0.3s0.5,0.1,0.8,0.1c0.2,0,0.4,0,0.6-0.1
			c0.2,0,0.4-0.1,0.6-0.2c0.2-0.1,0.3-0.2,0.4-0.4c0.1-0.2,0.2-0.4,0.2-0.6c0-0.4-0.3-0.7-0.8-1c-0.6-0.2-1.4-0.4-2.4-0.6
			c-0.4-0.1-0.8-0.2-1.2-0.3c-0.4-0.1-0.7-0.3-1-0.5c-0.3-0.2-0.6-0.5-0.7-0.8c-0.2-0.3-0.3-0.7-0.3-1.2c0-0.7,0.1-1.2,0.4-1.6
			c0.3-0.4,0.6-0.8,1-1c0.4-0.2,0.9-0.4,1.4-0.5c0.5-0.1,1.1-0.2,1.6-0.2c0.6,0,1.1,0.1,1.6,0.2s1,0.3,1.4,0.5s0.8,0.6,1,1
			c0.3,0.4,0.4,0.9,0.5,1.6h-2.7c0-0.5-0.2-0.9-0.6-1.1c-0.4-0.2-0.8-0.3-1.3-0.3c-0.2,0-0.3,0-0.5,0c-0.2,0-0.4,0.1-0.5,0.1
			c-0.2,0.1-0.3,0.2-0.4,0.3c-0.1,0.1-0.2,0.3-0.2,0.5c0,0.3,0.1,0.5,0.3,0.6c0.2,0.2,0.4,0.3,0.7,0.4c0.3,0.1,0.6,0.2,1,0.3
			c0.4,0.1,0.8,0.2,1.2,0.3c0.4,0.1,0.8,0.2,1.2,0.3c0.4,0.1,0.7,0.3,1,0.5s0.6,0.5,0.7,0.8c0.2,0.3,0.3,0.7,0.3,1.2
			c0,0.7-0.1,1.2-0.4,1.7c-0.3,0.5-0.6,0.8-1.1,1.1s-0.9,0.5-1.5,0.6c-0.6,0.1-1.1,0.2-1.7,0.2c-0.6,0-1.2-0.1-1.8-0.2
			s-1.1-0.3-1.5-0.6c-0.4-0.3-0.8-0.7-1.1-1.1c-0.3-0.5-0.4-1-0.5-1.7H273z M296.9,107.5h1.9c-0.8,1.4-1.5,2.8-1.9,4.1
			c-0.6,1.7-0.9,3.5-0.9,5.2c0,1.7,0.3,3.5,0.9,5.2c0.4,1.4,1.1,2.7,1.9,4.1h-1.9c-1-1.3-1.7-2.7-2.2-4.1c-0.6-1.7-0.9-3.4-0.9-5.2
			c0-1.8,0.3-3.6,0.9-5.3C295.3,110.1,296,108.8,296.9,107.5z M301.8,109.7h3.1v5.5h5.8v-5.5h3.1V124h-3.1v-6.2H305v6.2h-3.1V109.7z
			 M316.2,116.8c0-0.7,0.2-1.2,0.5-1.7s0.7-0.8,1.1-1.1c0.5-0.3,1-0.5,1.5-0.6c0.6-0.1,1.1-0.2,1.7-0.2c0.5,0,1,0,1.6,0.1
			s1,0.2,1.5,0.4s0.8,0.5,1.1,0.9c0.3,0.4,0.4,0.9,0.4,1.5v5.4c0,0.5,0,0.9,0.1,1.3c0.1,0.4,0.1,0.7,0.3,1h-2.9
			c-0.1-0.2-0.1-0.3-0.1-0.5c0-0.2-0.1-0.3-0.1-0.5c-0.5,0.5-1,0.8-1.6,1c-0.6,0.2-1.2,0.3-1.9,0.3c-0.5,0-1-0.1-1.4-0.2
			s-0.8-0.3-1.1-0.6c-0.3-0.3-0.6-0.6-0.8-1c-0.2-0.4-0.3-0.8-0.3-1.4c0-0.6,0.1-1.1,0.3-1.4c0.2-0.4,0.5-0.7,0.8-0.9
			c0.3-0.2,0.7-0.4,1.1-0.5c0.4-0.1,0.8-0.2,1.3-0.3s0.8-0.1,1.3-0.2s0.8-0.1,1.1-0.2c0.3-0.1,0.6-0.2,0.8-0.3
			c0.2-0.2,0.3-0.4,0.3-0.7c0-0.3,0-0.6-0.1-0.7s-0.2-0.3-0.4-0.4c-0.2-0.1-0.4-0.2-0.6-0.2s-0.5-0.1-0.7-0.1c-0.6,0-1,0.1-1.3,0.4
			s-0.5,0.6-0.6,1.2H316.2z M322.8,118.9c-0.1,0.1-0.3,0.2-0.5,0.2c-0.2,0.1-0.4,0.1-0.6,0.1c-0.2,0-0.4,0.1-0.6,0.1
			c-0.2,0-0.5,0.1-0.7,0.1c-0.2,0-0.4,0.1-0.6,0.2c-0.2,0.1-0.4,0.2-0.5,0.3s-0.3,0.3-0.4,0.4c-0.1,0.2-0.1,0.4-0.1,0.7
			c0,0.3,0,0.5,0.1,0.6c0.1,0.2,0.2,0.3,0.4,0.4s0.3,0.2,0.6,0.2c0.2,0,0.4,0.1,0.7,0.1c0.6,0,1-0.1,1.3-0.3s0.5-0.4,0.7-0.7
			s0.2-0.5,0.3-0.8c0-0.3,0-0.5,0-0.6V118.9z M330.7,112.1h-2.8v-2.3h2.8V112.1z M327.9,113.7h2.8V124h-2.8V113.7z M333,113.7h2.7
			v1.4h0.1c0.4-0.6,0.8-1,1.4-1.3c0.6-0.3,1.2-0.4,1.8-0.4c0.8,0,1.4,0.1,1.9,0.3c0.5,0.2,0.9,0.5,1.2,0.9c0.3,0.4,0.5,0.8,0.6,1.3
			c0.1,0.5,0.2,1.1,0.2,1.8v6.4h-2.8v-5.8c0-0.9-0.1-1.5-0.4-1.9s-0.7-0.6-1.4-0.6c-0.8,0-1.3,0.2-1.7,0.7c-0.3,0.5-0.5,1.2-0.5,2.3
			v5.4H333V113.7z M344.7,116.8c0-0.7,0.2-1.2,0.5-1.7s0.7-0.8,1.1-1.1c0.5-0.3,1-0.5,1.5-0.6c0.6-0.1,1.1-0.2,1.7-0.2
			c0.5,0,1,0,1.6,0.1s1,0.2,1.5,0.4s0.8,0.5,1.1,0.9c0.3,0.4,0.4,0.9,0.4,1.5v5.4c0,0.5,0,0.9,0.1,1.3c0.1,0.4,0.1,0.7,0.3,1h-2.9
			c-0.1-0.2-0.1-0.3-0.1-0.5c0-0.2-0.1-0.3-0.1-0.5c-0.5,0.5-1,0.8-1.6,1c-0.6,0.2-1.2,0.3-1.9,0.3c-0.5,0-1-0.1-1.4-0.2
			s-0.8-0.3-1.1-0.6c-0.3-0.3-0.6-0.6-0.8-1c-0.2-0.4-0.3-0.8-0.3-1.4c0-0.6,0.1-1.1,0.3-1.4c0.2-0.4,0.5-0.7,0.8-0.9
			c0.3-0.2,0.7-0.4,1.1-0.5c0.4-0.1,0.8-0.2,1.3-0.3s0.8-0.1,1.3-0.2s0.8-0.1,1.1-0.2c0.3-0.1,0.6-0.2,0.8-0.3
			c0.2-0.2,0.3-0.4,0.3-0.7c0-0.3,0-0.6-0.1-0.7s-0.2-0.3-0.4-0.4c-0.2-0.1-0.4-0.2-0.6-0.2s-0.5-0.1-0.7-0.1c-0.6,0-1,0.1-1.3,0.4
			s-0.5,0.6-0.6,1.2H344.7z M351.3,118.9c-0.1,0.1-0.3,0.2-0.5,0.2c-0.2,0.1-0.4,0.1-0.6,0.1c-0.2,0-0.4,0.1-0.6,0.1
			c-0.2,0-0.5,0.1-0.7,0.1c-0.2,0-0.4,0.1-0.6,0.2c-0.2,0.1-0.4,0.2-0.5,0.3s-0.3,0.3-0.4,0.4c-0.1,0.2-0.1,0.4-0.1,0.7
			c0,0.3,0,0.5,0.1,0.6c0.1,0.2,0.2,0.3,0.4,0.4s0.3,0.2,0.6,0.2c0.2,0,0.4,0.1,0.7,0.1c0.6,0,1-0.1,1.3-0.3s0.5-0.4,0.7-0.7
			s0.2-0.5,0.3-0.8c0-0.3,0-0.5,0-0.6V118.9z M356.3,113.7h2.7v1.4h0.1c0.4-0.6,0.8-1,1.4-1.3c0.6-0.3,1.2-0.4,1.8-0.4
			c0.8,0,1.4,0.1,1.9,0.3c0.5,0.2,0.9,0.5,1.2,0.9s0.5,0.8,0.6,1.3c0.1,0.5,0.2,1.1,0.2,1.8v6.4h-2.8v-5.8c0-0.9-0.1-1.5-0.4-1.9
			s-0.7-0.6-1.4-0.6c-0.8,0-1.3,0.2-1.7,0.7c-0.3,0.5-0.5,1.2-0.5,2.3v5.4h-2.8V113.7z M368.7,107.5h1.9c0.9,1.3,1.7,2.7,2.2,4.1
			c0.6,1.7,0.9,3.4,0.9,5.3c0,1.8-0.3,3.6-0.9,5.2c-0.5,1.4-1.3,2.8-2.2,4.1h-1.9c0.8-1.4,1.5-2.8,1.9-4.1c0.6-1.7,0.9-3.5,0.9-5.2
			c0-1.7-0.3-3.5-0.9-5.2C370.2,110.2,369.5,108.8,368.7,107.5z M398,114.5c-0.1-0.4-0.2-0.7-0.4-1c-0.2-0.3-0.4-0.6-0.7-0.8
			s-0.6-0.4-1-0.5c-0.4-0.1-0.7-0.2-1.1-0.2c-0.7,0-1.3,0.1-1.8,0.4c-0.5,0.3-0.9,0.6-1.2,1.1c-0.3,0.5-0.5,1-0.7,1.6
			c-0.1,0.6-0.2,1.2-0.2,1.8c0,0.6,0.1,1.2,0.2,1.8c0.1,0.6,0.4,1.1,0.7,1.5c0.3,0.5,0.7,0.8,1.2,1.1c0.5,0.3,1.1,0.4,1.8,0.4
			c1,0,1.7-0.3,2.2-0.9s0.9-1.4,1-2.3h3c-0.1,0.9-0.3,1.7-0.6,2.4c-0.3,0.7-0.8,1.3-1.3,1.8s-1.2,0.9-1.9,1.2
			c-0.7,0.3-1.5,0.4-2.4,0.4c-1.1,0-2.1-0.2-3-0.6c-0.9-0.4-1.6-0.9-2.2-1.6s-1.1-1.4-1.4-2.3c-0.3-0.9-0.5-1.9-0.5-2.9
			c0-1.1,0.2-2.1,0.5-3s0.8-1.7,1.4-2.4c0.6-0.7,1.3-1.2,2.2-1.6c0.9-0.4,1.9-0.6,3-0.6c0.8,0,1.5,0.1,2.2,0.3
			c0.7,0.2,1.3,0.6,1.9,1c0.6,0.4,1,1,1.4,1.6c0.4,0.6,0.6,1.4,0.7,2.2H398z M405.5,118.8c0,0.4,0,0.8,0.1,1.2
			c0.1,0.4,0.2,0.7,0.4,1.1c0.2,0.3,0.5,0.6,0.8,0.8s0.7,0.3,1.2,0.3c0.5,0,0.9-0.1,1.2-0.3c0.3-0.2,0.6-0.4,0.8-0.8
			c0.2-0.3,0.3-0.7,0.4-1.1c0.1-0.4,0.1-0.8,0.1-1.2c0-0.4,0-0.8-0.1-1.2c-0.1-0.4-0.2-0.8-0.4-1.1c-0.2-0.3-0.5-0.6-0.8-0.8
			c-0.3-0.2-0.7-0.3-1.2-0.3c-0.5,0-0.9,0.1-1.2,0.3c-0.3,0.2-0.6,0.4-0.8,0.8c-0.2,0.3-0.3,0.7-0.4,1.1
			C405.6,118,405.5,118.4,405.5,118.8z M402.7,118.8c0-0.8,0.1-1.6,0.4-2.2c0.3-0.7,0.6-1.2,1.1-1.7c0.5-0.5,1-0.8,1.7-1.1
			c0.7-0.3,1.4-0.4,2.2-0.4c0.8,0,1.6,0.1,2.2,0.4c0.7,0.3,1.2,0.6,1.7,1.1c0.5,0.5,0.8,1,1.1,1.7c0.3,0.7,0.4,1.4,0.4,2.2
			c0,0.8-0.1,1.6-0.4,2.2s-0.6,1.2-1.1,1.7c-0.5,0.5-1,0.8-1.7,1.1s-1.4,0.4-2.2,0.4c-0.8,0-1.5-0.1-2.2-0.4
			c-0.7-0.3-1.2-0.6-1.7-1.1c-0.5-0.5-0.8-1-1.1-1.7S402.7,119.7,402.7,118.8z M415.2,113.7h2.7v1.9h0c0.1-0.3,0.3-0.6,0.5-0.9
			c0.2-0.3,0.5-0.5,0.8-0.7c0.3-0.2,0.6-0.3,0.9-0.4s0.7-0.2,1-0.2c0.2,0,0.4,0,0.6,0.1v2.6c-0.1,0-0.3-0.1-0.5-0.1
			c-0.2,0-0.4,0-0.5,0c-0.5,0-1,0.1-1.3,0.3c-0.4,0.2-0.6,0.4-0.9,0.7c-0.2,0.3-0.4,0.7-0.5,1.1c-0.1,0.4-0.1,0.8-0.1,1.3v4.7h-2.8
			V113.7z M428.2,122.1c0.5,0,0.9-0.1,1.2-0.3c0.3-0.2,0.6-0.4,0.8-0.7c0.2-0.3,0.3-0.6,0.4-1c0.1-0.4,0.1-0.8,0.1-1.2
			s0-0.8-0.1-1.2s-0.2-0.8-0.4-1.1c-0.2-0.3-0.5-0.6-0.8-0.8c-0.3-0.2-0.7-0.3-1.1-0.3c-0.5,0-0.9,0.1-1.2,0.3
			c-0.3,0.2-0.6,0.4-0.8,0.8c-0.2,0.3-0.3,0.7-0.4,1.1c-0.1,0.4-0.1,0.8-0.1,1.2c0,0.4,0,0.8,0.1,1.2s0.2,0.8,0.4,1
			c0.2,0.3,0.4,0.5,0.8,0.7S427.8,122.1,428.2,122.1z M423,113.7h2.7v1.3h0c0.3-0.6,0.8-1,1.3-1.2s1.1-0.4,1.8-0.4
			c0.8,0,1.5,0.2,2.1,0.5c0.6,0.3,1.1,0.7,1.5,1.2c0.4,0.5,0.7,1.1,0.9,1.8c0.2,0.7,0.3,1.4,0.3,2.1c0,0.7-0.1,1.4-0.3,2
			c-0.2,0.6-0.5,1.2-0.8,1.7c-0.4,0.5-0.9,0.9-1.4,1.2s-1.2,0.4-2,0.4c-0.6,0-1.2-0.1-1.8-0.4c-0.5-0.3-1-0.6-1.3-1.2h0v4.9H423
			V113.7z M437.7,118.8c0,0.4,0,0.8,0.1,1.2c0.1,0.4,0.2,0.7,0.4,1.1c0.2,0.3,0.5,0.6,0.8,0.8s0.7,0.3,1.2,0.3
			c0.5,0,0.9-0.1,1.2-0.3c0.3-0.2,0.6-0.4,0.8-0.8c0.2-0.3,0.3-0.7,0.4-1.1c0.1-0.4,0.1-0.8,0.1-1.2c0-0.4,0-0.8-0.1-1.2
			c-0.1-0.4-0.2-0.8-0.4-1.1c-0.2-0.3-0.5-0.6-0.8-0.8c-0.3-0.2-0.7-0.3-1.2-0.3c-0.5,0-0.9,0.1-1.2,0.3c-0.3,0.2-0.6,0.4-0.8,0.8
			c-0.2,0.3-0.3,0.7-0.4,1.1C437.8,118,437.7,118.4,437.7,118.8z M434.9,118.8c0-0.8,0.1-1.6,0.4-2.2c0.3-0.7,0.6-1.2,1.1-1.7
			c0.5-0.5,1-0.8,1.7-1.1c0.7-0.3,1.4-0.4,2.2-0.4c0.8,0,1.6,0.1,2.2,0.4c0.7,0.3,1.2,0.6,1.7,1.1c0.5,0.5,0.8,1,1.1,1.7
			c0.3,0.7,0.4,1.4,0.4,2.2c0,0.8-0.1,1.6-0.4,2.2s-0.6,1.2-1.1,1.7c-0.5,0.5-1,0.8-1.7,1.1s-1.4,0.4-2.2,0.4
			c-0.8,0-1.5-0.1-2.2-0.4c-0.7-0.3-1.2-0.6-1.7-1.1c-0.5-0.5-0.8-1-1.1-1.7S434.9,119.7,434.9,118.8z M447.4,113.7h2.7v1.9h0
			c0.1-0.3,0.3-0.6,0.5-0.9c0.2-0.3,0.5-0.5,0.8-0.7c0.3-0.2,0.6-0.3,0.9-0.4s0.7-0.2,1-0.2c0.2,0,0.4,0,0.6,0.1v2.6
			c-0.1,0-0.3-0.1-0.5-0.1c-0.2,0-0.4,0-0.5,0c-0.5,0-1,0.1-1.3,0.3c-0.4,0.2-0.6,0.4-0.9,0.7c-0.2,0.3-0.4,0.7-0.5,1.1
			c-0.1,0.4-0.1,0.8-0.1,1.3v4.7h-2.8V113.7z M455.1,116.8c0-0.7,0.2-1.2,0.5-1.7s0.7-0.8,1.1-1.1c0.5-0.3,1-0.5,1.5-0.6
			s1.1-0.2,1.7-0.2c0.5,0,1,0,1.6,0.1c0.5,0.1,1,0.2,1.5,0.4s0.8,0.5,1.1,0.9c0.3,0.4,0.4,0.9,0.4,1.5v5.4c0,0.5,0,0.9,0.1,1.3
			c0.1,0.4,0.1,0.7,0.3,1H462c-0.1-0.2-0.1-0.3-0.1-0.5c0-0.2-0.1-0.3-0.1-0.5c-0.5,0.5-1,0.8-1.6,1s-1.2,0.3-1.9,0.3
			c-0.5,0-1-0.1-1.4-0.2c-0.4-0.1-0.8-0.3-1.1-0.6c-0.3-0.3-0.6-0.6-0.8-1c-0.2-0.4-0.3-0.8-0.3-1.4c0-0.6,0.1-1.1,0.3-1.4
			c0.2-0.4,0.5-0.7,0.8-0.9c0.3-0.2,0.7-0.4,1.1-0.5c0.4-0.1,0.8-0.2,1.3-0.3s0.8-0.1,1.3-0.2s0.8-0.1,1.1-0.2
			c0.3-0.1,0.6-0.2,0.8-0.3s0.3-0.4,0.3-0.7c0-0.3,0-0.6-0.1-0.7s-0.2-0.3-0.4-0.4c-0.2-0.1-0.4-0.2-0.6-0.2s-0.5-0.1-0.7-0.1
			c-0.6,0-1,0.1-1.3,0.4s-0.5,0.6-0.6,1.2H455.1z M461.7,118.9c-0.1,0.1-0.3,0.2-0.5,0.2c-0.2,0.1-0.4,0.1-0.6,0.1
			c-0.2,0-0.4,0.1-0.6,0.1c-0.2,0-0.5,0.1-0.7,0.1c-0.2,0-0.4,0.1-0.6,0.2c-0.2,0.1-0.4,0.2-0.5,0.3c-0.2,0.1-0.3,0.3-0.4,0.4
			c-0.1,0.2-0.1,0.4-0.1,0.7c0,0.3,0,0.5,0.1,0.6c0.1,0.2,0.2,0.3,0.4,0.4c0.2,0.1,0.3,0.2,0.6,0.2c0.2,0,0.4,0.1,0.7,0.1
			c0.6,0,1-0.1,1.3-0.3s0.5-0.4,0.7-0.7s0.2-0.5,0.3-0.8c0-0.3,0.1-0.5,0.1-0.6V118.9z M470.3,113.7h2.1v1.9h-2.1v5.1
			c0,0.5,0.1,0.8,0.2,1s0.5,0.2,1,0.2c0.2,0,0.3,0,0.5,0s0.3,0,0.4-0.1v2.2c-0.2,0-0.5,0.1-0.8,0.1c-0.3,0-0.6,0-0.9,0
			c-0.4,0-0.9,0-1.2-0.1c-0.4-0.1-0.7-0.2-1-0.3c-0.3-0.2-0.5-0.4-0.7-0.7c-0.2-0.3-0.3-0.7-0.3-1.3v-6.1h-1.7v-1.9h1.7v-3.1h2.8
			V113.7z M476.7,112.1h-2.8v-2.3h2.8V112.1z M473.8,113.7h2.8V124h-2.8V113.7z M481.4,118.8c0,0.4,0,0.8,0.1,1.2
			c0.1,0.4,0.2,0.7,0.4,1.1c0.2,0.3,0.4,0.6,0.8,0.8s0.7,0.3,1.2,0.3c0.5,0,0.9-0.1,1.2-0.3s0.6-0.4,0.8-0.8
			c0.2-0.3,0.3-0.7,0.4-1.1c0.1-0.4,0.1-0.8,0.1-1.2c0-0.4,0-0.8-0.1-1.2c-0.1-0.4-0.2-0.8-0.4-1.1c-0.2-0.3-0.5-0.6-0.8-0.8
			c-0.3-0.2-0.7-0.3-1.2-0.3c-0.5,0-0.9,0.1-1.2,0.3c-0.3,0.2-0.6,0.4-0.8,0.8c-0.2,0.3-0.3,0.7-0.4,1.1
			C481.5,118,481.4,118.4,481.4,118.8z M478.6,118.8c0-0.8,0.1-1.6,0.4-2.2c0.3-0.7,0.6-1.2,1.1-1.7s1-0.8,1.7-1.1
			c0.7-0.3,1.4-0.4,2.2-0.4c0.8,0,1.5,0.1,2.2,0.4c0.7,0.3,1.2,0.6,1.7,1.1s0.8,1,1.1,1.7c0.3,0.7,0.4,1.4,0.4,2.2
			c0,0.8-0.1,1.6-0.4,2.2s-0.6,1.2-1.1,1.7s-1,0.8-1.7,1.1s-1.4,0.4-2.2,0.4c-0.8,0-1.5-0.1-2.2-0.4s-1.2-0.6-1.7-1.1
			s-0.8-1-1.1-1.7C478.7,120.4,478.6,119.7,478.6,118.8z M491.1,113.7h2.7v1.4h0.1c0.4-0.6,0.8-1,1.4-1.3c0.6-0.3,1.2-0.4,1.8-0.4
			c0.8,0,1.4,0.1,1.9,0.3c0.5,0.2,0.9,0.5,1.1,0.9s0.5,0.8,0.6,1.3c0.1,0.5,0.2,1.1,0.2,1.8v6.4H498v-5.8c0-0.9-0.1-1.5-0.4-1.9
			c-0.3-0.4-0.7-0.6-1.4-0.6c-0.8,0-1.3,0.2-1.7,0.7c-0.3,0.5-0.5,1.2-0.5,2.3v5.4h-2.8V113.7z"/>
	</g>
</g>
</svg>
