<?xml version="1.0" encoding="UTF-8"?>
<svg width="550px" height="144px" viewBox="0 0 550 144" version="1.1" xmlns="http://www.w3.org/2000/svg" xmlns:xlink="http://www.w3.org/1999/xlink">
    <!-- Generator: Sketch 52.5 (67469) - http://www.bohemiancoding.com/sketch -->
    <title>丰田海南</title>
    <desc>Created with Sketch.</desc>
    <g id="logo" stroke="none" stroke-width="1" fill="none" fill-rule="evenodd">
        <g id="丰田海南">
            <rect id="Rectangle" fill="#FF3B30" x="0" y="0" width="550" height="144"></rect>
            <path d="M46.36,49.04 L70.76,49.04 L70.76,38.72 L42.68,38.72 L42.68,30.56 L70.76,30.56 L70.76,20.4 L79.24,20.4 L79.24,30.56 L108.04,30.56 L108.04,38.72 L79.24,38.72 L79.24,49.04 L104.36,49.04 L104.36,57.36 L79.24,57.36 L79.24,67.52 L109.96,67.52 L109.96,75.76 L79.24,75.76 L79.24,94.32 L70.76,94.32 L70.76,75.76 L40.28,75.76 L40.28,67.52 L70.76,67.52 L70.76,57.36 L46.36,57.36 L46.36,49.04 Z M187.08,24.72 L187.08,93.12 L178.84,93.12 L178.84,87.92 L131.32,87.92 L131.32,93.12 L123.08,93.12 L123.08,24.72 L187.08,24.72 Z M131.32,79.92 L150.76,79.92 L150.76,59.68 L131.32,59.68 L131.32,79.92 Z M158.92,79.92 L178.84,79.92 L178.84,59.68 L158.92,59.68 L158.92,79.92 Z M131.32,52.08 L150.76,52.08 L150.76,32.64 L131.32,32.64 L131.32,52.08 Z M158.92,32.64 L158.92,52.08 L178.84,52.08 L178.84,32.64 L158.92,32.64 Z M230.28,33.44 C229.24,35.04 228.2,36.64 227.16,38.08 L266.6,38.08 C266.36,44.96 266.12,51.04 265.96,56.48 L272.12,56.48 L272.12,64.16 L265.64,64.16 C265.4,68.64 265.16,72.48 265,75.6 L270.84,75.6 L270.84,82.8 L264.44,82.8 C264.28,84.72 264.04,86 263.88,86.56 C263.08,89.2 261.56,91.12 259.4,92.32 C257.16,93.52 253.88,94.16 249.56,94.16 C247.32,94.16 244.68,94.24 241.8,94.24 L239.32,86.8 C242.68,86.96 245.72,87.12 248.44,87.12 C250.28,87.12 251.88,86.88 253.24,86.56 C254.6,86.08 255.64,85.04 256.36,83.52 C256.36,83.36 256.44,83.12 256.52,82.8 L218.68,82.8 C219.96,76.48 221.08,70.24 221.88,64.16 L214.84,64.16 L214.84,56.48 L222.76,56.48 C223.24,51.68 223.64,46.88 223.88,42.24 C222.76,43.52 221.56,44.8 220.44,45.92 L215.16,39.52 C220.12,34.8 224.44,28.08 228.12,19.44 L236.44,21.28 L234.44,25.76 L269.72,25.76 L269.72,33.44 L230.28,33.44 Z M229.88,64.16 C229.32,68.24 228.68,72.08 227.96,75.6 L244.36,75.6 C242.12,73.2 239.08,70.72 235.4,68.08 L239.48,64.16 L229.88,64.16 Z M245.88,75.6 L257.16,75.6 C257.32,72.56 257.48,68.72 257.72,64.16 L242.2,64.16 C245.4,66.4 248.2,68.72 250.44,71.04 L245.88,75.6 Z M258.04,56.48 C258.12,52.96 258.28,49.28 258.44,45.28 L241.88,45.28 C245.56,47.6 248.76,49.92 251.4,52.16 L247,56.48 L258.04,56.48 Z M241.24,45.28 L231.48,45.28 C231.32,49.2 231,52.96 230.68,56.48 L245,56.48 C242.76,54.4 239.8,52.32 236.28,50.08 L241.24,45.28 Z M205.32,20.96 C210.04,24.32 214.04,27.68 217.24,31.12 L211.32,37.04 C208.52,33.84 204.52,30.4 199.4,26.72 L205.32,20.96 Z M204.04,40.4 C208.76,43.84 212.76,47.28 216.04,50.8 L210.12,56.72 C207.32,53.52 203.32,50 198.12,46.16 L204.04,40.4 Z M209.96,64.4 L217.24,67.28 C214.04,76.56 210.36,85.2 206.36,93.36 L198.6,89.92 C202.92,81.6 206.76,73.04 209.96,64.4 Z M279.08,26.64 L311.64,26.64 C311.96,24.24 312.2,21.84 312.52,19.52 L321,20.72 L320.28,26.64 L350.92,26.64 L350.92,34.48 L318.92,34.48 C318.44,36.56 318.04,38.64 317.56,40.64 L347.16,40.64 L347.16,84.64 C347.16,90.72 344.36,93.76 338.76,93.76 L331.32,93.76 L329.16,85.68 L336.04,85.92 C337.96,85.92 338.92,84.8 338.92,82.72 L338.92,48.48 L291.24,48.48 L291.24,94.32 L283,94.32 L283,40.64 L309,40.64 C309.48,38.56 309.88,36.48 310.28,34.48 L279.08,34.48 L279.08,26.64 Z M307.4,49.44 C308.92,52.08 310.36,55.12 311.64,58.64 L318.44,58.64 C320.04,55.68 321.4,52.56 322.6,49.2 L330.12,51.92 C329,54.4 327.8,56.64 326.52,58.64 L333.8,58.64 L333.8,65.92 L319.08,65.92 L319.08,72 L335.88,72 L335.88,79.28 L319.08,79.28 L319.08,93.04 L310.92,93.04 L310.92,79.28 L294.2,79.28 L294.2,72 L310.92,72 L310.92,65.92 L296.44,65.92 L296.44,58.64 L303.64,58.64 C302.52,56.32 301.32,54.16 299.96,52.16 L307.4,49.44 Z M415.24,47.28 L415.24,26.24 L423.64,26.24 L423.64,55.28 L399.32,55.28 L399.32,82.16 L419.24,82.16 L419.24,61.28 L427.64,61.28 L427.64,93.76 L419.24,93.76 L419.24,90.24 L370.76,90.24 L370.76,93.76 L362.36,93.76 L362.36,61.28 L370.76,61.28 L370.76,82.16 L390.68,82.16 L390.68,55.28 L366.36,55.28 L366.36,26.24 L374.76,26.24 L374.76,47.28 L390.68,47.28 L390.68,20.24 L399.32,20.24 L399.32,47.28 L415.24,47.28 Z M468.44,24.48 L507.8,24.48 L507.8,32.72 L468.44,32.72 L468.44,24.48 Z M466.52,44.32 L511.24,44.32 L511.24,52.56 L498.92,52.56 L498.92,86.08 C498.92,91.36 495.96,94 490.04,94 L478.44,94 L476.6,85.84 C480.28,86.16 483.8,86.4 487.16,86.4 C489.32,86.4 490.44,85.6 490.44,84 L490.44,52.56 L466.52,52.56 L466.52,44.32 Z M454.52,20.72 L462.12,24.32 C457.88,33.04 450.6,40.96 440.28,48.08 L437.72,39.68 C445.24,34.32 450.84,28 454.52,20.72 Z M458.28,39.12 L465.8,42.64 C463.72,46.8 461.08,50.8 457.88,54.64 L457.88,94.32 L449.64,94.32 L449.64,62.88 C446.92,65.12 443.96,67.36 440.92,69.52 L438.36,61.28 C447.32,55.04 453.96,47.6 458.28,39.12 Z" id="丰田海南出行" fill="#FFFFFF"></path>
            <path d="M53.54,112.36 L49.26,112.36 L49.26,109.72 L60.96,109.72 L60.96,112.36 L56.68,112.36 L56.68,124 L53.54,124 L53.54,112.36 Z M62.6,118.84 C62.6,119.253335 62.6399996,119.656665 62.72,120.05 C62.8000004,120.443335 62.9366657,120.796665 63.13,121.11 C63.3233343,121.423335 63.5799984,121.673332 63.9,121.86 C64.2200016,122.046668 64.6199976,122.14 65.1,122.14 C65.5800024,122.14 65.9833317,122.046668 66.31,121.86 C66.6366683,121.673332 66.8966657,121.423335 67.09,121.11 C67.2833343,120.796665 67.4199996,120.443335 67.5,120.05 C67.5800004,119.656665 67.62,119.253335 67.62,118.84 C67.62,118.426665 67.5800004,118.020002 67.5,117.62 C67.4199996,117.219998 67.2833343,116.866668 67.09,116.56 C66.8966657,116.253332 66.6366683,116.003334 66.31,115.81 C65.9833317,115.616666 65.5800024,115.52 65.1,115.52 C64.6199976,115.52 64.2200016,115.616666 63.9,115.81 C63.5799984,116.003334 63.3233343,116.253332 63.13,116.56 C62.9366657,116.866668 62.8000004,117.219998 62.72,117.62 C62.6399996,118.020002 62.6,118.426665 62.6,118.84 Z M59.76,118.84 C59.76,118.013329 59.8866654,117.263337 60.14,116.59 C60.3933346,115.916663 60.753331,115.343336 61.22,114.87 C61.686669,114.396664 62.2466634,114.030001 62.9,113.77 C63.5533366,113.509999 64.2866626,113.38 65.1,113.38 C65.9133374,113.38 66.6499967,113.509999 67.31,113.77 C67.9700033,114.030001 68.533331,114.396664 69,114.87 C69.466669,115.343336 69.8266654,115.916663 70.08,116.59 C70.3333346,117.263337 70.46,118.013329 70.46,118.84 C70.46,119.666671 70.3333346,120.41333 70.08,121.08 C69.8266654,121.74667 69.466669,122.316664 69,122.79 C68.533331,123.263336 67.9700033,123.626665 67.31,123.88 C66.6499967,124.133335 65.9133374,124.26 65.1,124.26 C64.2866626,124.26 63.5533366,124.133335 62.9,123.88 C62.2466634,123.626665 61.686669,123.263336 61.22,122.79 C60.753331,122.316664 60.3933346,121.74667 60.14,121.08 C59.8866654,120.41333 59.76,119.666671 59.76,118.84 Z M77.4,125.28 C77.0933318,126.120004 76.6666694,126.719998 76.12,127.08 C75.5733306,127.440002 74.8133382,127.62 73.84,127.62 C73.5466652,127.62 73.2566681,127.61 72.97,127.59 C72.6833319,127.57 72.3933348,127.546667 72.1,127.52 L72.1,125.18 C72.366668,125.206667 72.6399986,125.233333 72.92,125.26 C73.2000014,125.286667 73.4799986,125.293333 73.76,125.28 C74.1333352,125.24 74.4099991,125.093335 74.59,124.84 C74.7700009,124.586665 74.86,124.306668 74.86,124 C74.86,123.773332 74.8200004,123.560001 74.74,123.36 L71.12,113.66 L74.14,113.66 L76.48,120.74 L76.52,120.74 L78.78,113.66 L81.72,113.66 L77.4,125.28 Z M85.2,118.84 C85.2,119.253335 85.2399996,119.656665 85.32,120.05 C85.4000004,120.443335 85.5366657,120.796665 85.73,121.11 C85.9233343,121.423335 86.1799984,121.673332 86.5,121.86 C86.8200016,122.046668 87.2199976,122.14 87.7,122.14 C88.1800024,122.14 88.5833317,122.046668 88.91,121.86 C89.2366683,121.673332 89.4966657,121.423335 89.69,121.11 C89.8833343,120.796665 90.0199996,120.443335 90.1,120.05 C90.1800004,119.656665 90.22,119.253335 90.22,118.84 C90.22,118.426665 90.1800004,118.020002 90.1,117.62 C90.0199996,117.219998 89.8833343,116.866668 89.69,116.56 C89.4966657,116.253332 89.2366683,116.003334 88.91,115.81 C88.5833317,115.616666 88.1800024,115.52 87.7,115.52 C87.2199976,115.52 86.8200016,115.616666 86.5,115.81 C86.1799984,116.003334 85.9233343,116.253332 85.73,116.56 C85.5366657,116.866668 85.4000004,117.219998 85.32,117.62 C85.2399996,118.020002 85.2,118.426665 85.2,118.84 Z M82.36,118.84 C82.36,118.013329 82.4866654,117.263337 82.74,116.59 C82.9933346,115.916663 83.353331,115.343336 83.82,114.87 C84.286669,114.396664 84.8466634,114.030001 85.5,113.77 C86.1533366,113.509999 86.8866626,113.38 87.7,113.38 C88.5133374,113.38 89.2499967,113.509999 89.91,113.77 C90.5700033,114.030001 91.133331,114.396664 91.6,114.87 C92.066669,115.343336 92.4266654,115.916663 92.68,116.59 C92.9333346,117.263337 93.06,118.013329 93.06,118.84 C93.06,119.666671 92.9333346,120.41333 92.68,121.08 C92.4266654,121.74667 92.066669,122.316664 91.6,122.79 C91.133331,123.263336 90.5700033,123.626665 89.91,123.88 C89.2499967,124.133335 88.5133374,124.26 87.7,124.26 C86.8866626,124.26 86.1533366,124.133335 85.5,123.88 C84.8466634,123.626665 84.286669,123.263336 83.82,122.79 C83.353331,122.316664 82.9933346,121.74667 82.74,121.08 C82.4866654,120.41333 82.36,119.666671 82.36,118.84 Z M98.5,113.66 L100.58,113.66 L100.58,115.56 L98.5,115.56 L98.5,120.68 C98.5,121.160002 98.5799992,121.479999 98.74,121.64 C98.9000008,121.800001 99.2199976,121.88 99.7,121.88 C99.8600008,121.88 100.013333,121.873333 100.16,121.86 C100.306667,121.846667 100.446666,121.826667 100.58,121.8 L100.58,124 C100.339999,124.04 100.073335,124.066667 99.78,124.08 C99.4866652,124.093333 99.2000014,124.1 98.92,124.1 C98.4799978,124.1 98.0633353,124.07 97.67,124.01 C97.2766647,123.95 96.9300015,123.833334 96.63,123.66 C96.3299985,123.486666 96.0933342,123.240002 95.92,122.92 C95.7466658,122.599998 95.66,122.180003 95.66,121.66 L95.66,115.56 L93.94,115.56 L93.94,113.66 L95.66,113.66 L95.66,110.56 L98.5,110.56 L98.5,113.66 Z M101.82,116.84 C101.86,116.17333 102.026665,115.620002 102.32,115.18 C102.613335,114.739998 102.986664,114.386668 103.44,114.12 C103.893336,113.853332 104.40333,113.663334 104.97,113.55 C105.53667,113.436666 106.106664,113.38 106.68,113.38 C107.200003,113.38 107.726664,113.416666 108.26,113.49 C108.793336,113.563334 109.279998,113.706666 109.72,113.92 C110.160002,114.133334 110.519999,114.429998 110.8,114.81 C111.080001,115.190002 111.22,115.69333 111.22,116.32 L111.22,121.7 C111.22,122.166669 111.246666,122.613331 111.3,123.04 C111.353334,123.466669 111.446666,123.786666 111.58,124 L108.7,124 C108.646666,123.839999 108.603333,123.676668 108.57,123.51 C108.536666,123.343333 108.513333,123.173334 108.5,123 C108.046664,123.466669 107.513336,123.793332 106.9,123.98 C106.286664,124.166668 105.660003,124.26 105.02,124.26 C104.526664,124.26 104.066669,124.200001 103.64,124.08 C103.213331,123.959999 102.840002,123.773335 102.52,123.52 C102.199998,123.266665 101.950001,122.946669 101.77,122.56 C101.589999,122.173331 101.5,121.713336 101.5,121.18 C101.5,120.59333 101.603332,120.110002 101.81,119.73 C102.016668,119.349998 102.283332,119.046668 102.61,118.82 C102.936668,118.593332 103.309998,118.423334 103.73,118.31 C104.150002,118.196666 104.573331,118.106667 105,118.04 C105.426669,117.973333 105.846665,117.92 106.26,117.88 C106.673335,117.84 107.039998,117.78 107.36,117.7 C107.680002,117.62 107.933332,117.503334 108.12,117.35 C108.306668,117.196666 108.393333,116.973335 108.38,116.68 C108.38,116.373332 108.33,116.130001 108.23,115.95 C108.129999,115.769999 107.996668,115.63 107.83,115.53 C107.663332,115.429999 107.470001,115.363333 107.25,115.33 C107.029999,115.296667 106.793335,115.28 106.54,115.28 C105.979997,115.28 105.540002,115.399999 105.22,115.64 C104.899998,115.880001 104.713334,116.279997 104.66,116.84 L101.82,116.84 Z M108.38,118.94 C108.259999,119.046667 108.110001,119.13 107.93,119.19 C107.749999,119.25 107.556668,119.3 107.35,119.34 C107.143332,119.38 106.926668,119.413333 106.7,119.44 C106.473332,119.466667 106.246668,119.5 106.02,119.54 C105.806666,119.58 105.596668,119.633333 105.39,119.7 C105.183332,119.766667 105.003334,119.856666 104.85,119.97 C104.696666,120.083334 104.573334,120.226666 104.48,120.4 C104.386666,120.573334 104.34,120.793332 104.34,121.06 C104.34,121.313335 104.386666,121.526666 104.48,121.7 C104.573334,121.873334 104.699999,122.009999 104.86,122.11 C105.020001,122.210001 105.206666,122.28 105.42,122.32 C105.633334,122.36 105.853332,122.38 106.08,122.38 C106.640003,122.38 107.073332,122.286668 107.38,122.1 C107.686668,121.913332 107.913333,121.690001 108.06,121.43 C108.206667,121.169999 108.296667,120.906668 108.33,120.64 C108.363333,120.373332 108.38,120.160001 108.38,120 L108.38,118.94 Z M119.28,109.72 L123.7,109.72 L127.04,119.54 L127.08,119.54 L130.24,109.72 L134.66,109.72 L134.66,124 L131.72,124 L131.72,113.88 L131.68,113.88 L128.18,124 L125.76,124 L122.26,113.98 L122.22,113.98 L122.22,124 L119.28,124 L119.28,109.72 Z M139.64,118.84 C139.64,119.253335 139.68,119.656665 139.76,120.05 C139.84,120.443335 139.976666,120.796665 140.17,121.11 C140.363334,121.423335 140.619998,121.673332 140.94,121.86 C141.260002,122.046668 141.659998,122.14 142.14,122.14 C142.620002,122.14 143.023332,122.046668 143.35,121.86 C143.676668,121.673332 143.936666,121.423335 144.13,121.11 C144.323334,120.796665 144.46,120.443335 144.54,120.05 C144.62,119.656665 144.66,119.253335 144.66,118.84 C144.66,118.426665 144.62,118.020002 144.54,117.62 C144.46,117.219998 144.323334,116.866668 144.13,116.56 C143.936666,116.253332 143.676668,116.003334 143.35,115.81 C143.023332,115.616666 142.620002,115.52 142.14,115.52 C141.659998,115.52 141.260002,115.616666 140.94,115.81 C140.619998,116.003334 140.363334,116.253332 140.17,116.56 C139.976666,116.866668 139.84,117.219998 139.76,117.62 C139.68,118.020002 139.64,118.426665 139.64,118.84 Z M136.8,118.84 C136.8,118.013329 136.926665,117.263337 137.18,116.59 C137.433335,115.916663 137.793331,115.343336 138.26,114.87 C138.726669,114.396664 139.286663,114.030001 139.94,113.77 C140.593337,113.509999 141.326663,113.38 142.14,113.38 C142.953337,113.38 143.689997,113.509999 144.35,113.77 C145.010003,114.030001 145.573331,114.396664 146.04,114.87 C146.506669,115.343336 146.866665,115.916663 147.12,116.59 C147.373335,117.263337 147.5,118.013329 147.5,118.84 C147.5,119.666671 147.373335,120.41333 147.12,121.08 C146.866665,121.74667 146.506669,122.316664 146.04,122.79 C145.573331,123.263336 145.010003,123.626665 144.35,123.88 C143.689997,124.133335 142.953337,124.26 142.14,124.26 C141.326663,124.26 140.593337,124.133335 139.94,123.88 C139.286663,123.626665 138.726669,123.263336 138.26,122.79 C137.793331,122.316664 137.433335,121.74667 137.18,121.08 C136.926665,120.41333 136.8,119.666671 136.8,118.84 Z M156.92,118.84 C156.92,118.399998 156.873334,117.980002 156.78,117.58 C156.686666,117.179998 156.540001,116.826668 156.34,116.52 C156.139999,116.213332 155.890002,115.970001 155.59,115.79 C155.289999,115.609999 154.926669,115.52 154.5,115.52 C154.086665,115.52 153.726668,115.609999 153.42,115.79 C153.113332,115.970001 152.860001,116.213332 152.66,116.52 C152.459999,116.826668 152.313334,117.179998 152.22,117.58 C152.126666,117.980002 152.08,118.399998 152.08,118.84 C152.08,119.266669 152.126666,119.679998 152.22,120.08 C152.313334,120.480002 152.459999,120.833332 152.66,121.14 C152.860001,121.446668 153.113332,121.689999 153.42,121.87 C153.726668,122.050001 154.086665,122.14 154.5,122.14 C154.926669,122.14 155.289999,122.050001 155.59,121.87 C155.890002,121.689999 156.139999,121.446668 156.34,121.14 C156.540001,120.833332 156.686666,120.480002 156.78,120.08 C156.873334,119.679998 156.92,119.266669 156.92,118.84 Z M149.34,109.72 L152.18,109.72 L152.18,114.92 L152.22,114.92 C152.566668,114.386664 153.036664,113.996668 153.63,113.75 C154.223336,113.503332 154.839997,113.38 155.48,113.38 C156.000003,113.38 156.513331,113.486666 157.02,113.7 C157.526669,113.913334 157.983331,114.239998 158.39,114.68 C158.796669,115.120002 159.126665,115.68333 159.38,116.37 C159.633335,117.05667 159.76,117.873329 159.76,118.82 C159.76,119.766671 159.633335,120.58333 159.38,121.27 C159.126665,121.95667 158.796669,122.519998 158.39,122.96 C157.983331,123.400002 157.526669,123.726666 157.02,123.94 C156.513331,124.153334 156.000003,124.26 155.48,124.26 C154.719996,124.26 154.040003,124.140001 153.44,123.9 C152.839997,123.659999 152.386668,123.253336 152.08,122.68 L152.04,122.68 L152.04,124 L149.34,124 L149.34,109.72 Z M164.48,112.06 L161.64,112.06 L161.64,109.72 L164.48,109.72 L164.48,112.06 Z M161.64,113.66 L164.48,113.66 L164.48,124 L161.64,124 L161.64,113.66 Z M166.8,109.72 L169.64,109.72 L169.64,124 L166.8,124 L166.8,109.72 Z M174.8,112.06 L171.96,112.06 L171.96,109.72 L174.8,109.72 L174.8,112.06 Z M171.96,113.66 L174.8,113.66 L174.8,124 L171.96,124 L171.96,113.66 Z M180.64,113.66 L182.72,113.66 L182.72,115.56 L180.64,115.56 L180.64,120.68 C180.64,121.160002 180.719999,121.479999 180.88,121.64 C181.040001,121.800001 181.359998,121.88 181.84,121.88 C182.000001,121.88 182.153333,121.873333 182.3,121.86 C182.446667,121.846667 182.586666,121.826667 182.72,121.8 L182.72,124 C182.479999,124.04 182.213335,124.066667 181.92,124.08 C181.626665,124.093333 181.340001,124.1 181.06,124.1 C180.619998,124.1 180.203335,124.07 179.81,124.01 C179.416665,123.95 179.070001,123.833334 178.77,123.66 C178.469998,123.486666 178.233334,123.240002 178.06,122.92 C177.886666,122.599998 177.8,122.180003 177.8,121.66 L177.8,115.56 L176.08,115.56 L176.08,113.66 L177.8,113.66 L177.8,110.56 L180.64,110.56 L180.64,113.66 Z M189.18,125.28 C188.873332,126.120004 188.446669,126.719998 187.9,127.08 C187.353331,127.440002 186.593338,127.62 185.62,127.62 C185.326665,127.62 185.036668,127.61 184.75,127.59 C184.463332,127.57 184.173335,127.546667 183.88,127.52 L183.88,125.18 C184.146668,125.206667 184.419999,125.233333 184.7,125.26 C184.980001,125.286667 185.259999,125.293333 185.54,125.28 C185.913335,125.24 186.189999,125.093335 186.37,124.84 C186.550001,124.586665 186.64,124.306668 186.64,124 C186.64,123.773332 186.6,123.560001 186.52,123.36 L182.9,113.66 L185.92,113.66 L188.26,120.74 L188.3,120.74 L190.56,113.66 L193.5,113.66 L189.18,125.28 Z M202.46,119.26 C202.46,119.740002 202.546666,120.146665 202.72,120.48 C202.893334,120.813335 203.123332,121.083332 203.41,121.29 C203.696668,121.496668 204.033331,121.65 204.42,121.75 C204.806669,121.85 205.206665,121.9 205.62,121.9 C205.900001,121.9 206.199998,121.876667 206.52,121.83 C206.840002,121.783333 207.139999,121.693334 207.42,121.56 C207.700001,121.426666 207.933332,121.243335 208.12,121.01 C208.306668,120.776666 208.4,120.480002 208.4,120.12 C208.4,119.733331 208.276668,119.420001 208.03,119.18 C207.783332,118.939999 207.460002,118.740001 207.06,118.58 C206.659998,118.419999 206.206669,118.280001 205.7,118.16 C205.193331,118.039999 204.680003,117.906667 204.16,117.76 C203.626664,117.626666 203.106669,117.463334 202.6,117.27 C202.093331,117.076666 201.640002,116.826668 201.24,116.52 C200.839998,116.213332 200.516668,115.830002 200.27,115.37 C200.023332,114.909998 199.9,114.353337 199.9,113.7 C199.9,112.966663 200.056665,112.330003 200.37,111.79 C200.683335,111.249997 201.093331,110.800002 201.6,110.44 C202.106669,110.079998 202.679997,109.813334 203.32,109.64 C203.960003,109.466666 204.599997,109.38 205.24,109.38 C205.98667,109.38 206.70333,109.463333 207.39,109.63 C208.07667,109.796667 208.686664,110.066665 209.22,110.44 C209.753336,110.813335 210.176665,111.289997 210.49,111.87 C210.803335,112.450003 210.96,113.153329 210.96,113.98 L207.92,113.98 C207.893333,113.553331 207.803334,113.200001 207.65,112.92 C207.496666,112.639999 207.293335,112.420001 207.04,112.26 C206.786665,112.099999 206.496668,111.986667 206.17,111.92 C205.843332,111.853333 205.486669,111.82 205.1,111.82 C204.846665,111.82 204.593335,111.846666 204.34,111.9 C204.086665,111.953334 203.856668,112.046666 203.65,112.18 C203.443332,112.313334 203.273334,112.479999 203.14,112.68 C203.006666,112.880001 202.94,113.133332 202.94,113.44 C202.94,113.720001 202.993333,113.946666 203.1,114.12 C203.206667,114.293334 203.416665,114.453333 203.73,114.6 C204.043335,114.746667 204.476664,114.893333 205.03,115.04 C205.583336,115.186667 206.306662,115.373332 207.2,115.6 C207.466668,115.653334 207.836664,115.749999 208.31,115.89 C208.783336,116.030001 209.253331,116.253332 209.72,116.56 C210.186669,116.866668 210.589998,117.276664 210.93,117.79 C211.270002,118.303336 211.44,118.959996 211.44,119.76 C211.44,120.413337 211.313335,121.019997 211.06,121.58 C210.806665,122.140003 210.430003,122.623331 209.93,123.03 C209.429998,123.436669 208.810004,123.753332 208.07,123.98 C207.329996,124.206668 206.473338,124.32 205.5,124.32 C204.713329,124.32 203.950004,124.223334 203.21,124.03 C202.469996,123.836666 201.81667,123.533335 201.25,123.12 C200.683331,122.706665 200.233335,122.180003 199.9,121.54 C199.566665,120.899997 199.406667,120.140004 199.42,119.26 L202.46,119.26 Z M219.96,117.72 C219.826666,116.999996 219.590002,116.453335 219.25,116.08 C218.909998,115.706665 218.393337,115.52 217.7,115.52 C217.246664,115.52 216.870002,115.596666 216.57,115.75 C216.269998,115.903334 216.030001,116.093332 215.85,116.32 C215.669999,116.546668 215.543334,116.786665 215.47,117.04 C215.396666,117.293335 215.353333,117.519999 215.34,117.72 L219.96,117.72 Z M215.34,119.52 C215.38,120.440005 215.613331,121.106665 216.04,121.52 C216.466669,121.933335 217.079996,122.14 217.88,122.14 C218.453336,122.14 218.946665,121.996668 219.36,121.71 C219.773335,121.423332 220.026666,121.120002 220.12,120.8 L222.62,120.8 C222.219998,122.040006 221.606671,122.926664 220.78,123.46 C219.953329,123.993336 218.953339,124.26 217.78,124.26 C216.966663,124.26 216.233337,124.130001 215.58,123.87 C214.926663,123.609999 214.373336,123.240002 213.92,122.76 C213.466664,122.279998 213.116668,121.70667 212.87,121.04 C212.623332,120.37333 212.5,119.640004 212.5,118.84 C212.5,118.066663 212.626665,117.34667 212.88,116.68 C213.133335,116.01333 213.493331,115.436669 213.96,114.95 C214.426669,114.463331 214.98333,114.080001 215.63,113.8 C216.27667,113.519999 216.993329,113.38 217.78,113.38 C218.660004,113.38 219.426663,113.549998 220.08,113.89 C220.733337,114.230002 221.269998,114.686664 221.69,115.26 C222.110002,115.833336 222.413332,116.486663 222.6,117.22 C222.786668,117.953337 222.853334,118.719996 222.8,119.52 L215.34,119.52 Z M224.48,113.66 L227.18,113.66 L227.18,115.58 L227.22,115.58 C227.353334,115.259998 227.533332,114.963335 227.76,114.69 C227.986668,114.416665 228.246665,114.183334 228.54,113.99 C228.833335,113.796666 229.146665,113.646667 229.48,113.54 C229.813335,113.433333 230.159998,113.38 230.52,113.38 C230.706668,113.38 230.913332,113.413333 231.14,113.48 L231.14,116.12 C231.006666,116.093333 230.846668,116.07 230.66,116.05 C230.473332,116.03 230.293334,116.02 230.12,116.02 C229.599997,116.02 229.160002,116.106666 228.8,116.28 C228.439998,116.453334 228.150001,116.689999 227.93,116.99 C227.709999,117.290002 227.553334,117.639998 227.46,118.04 C227.366666,118.440002 227.32,118.873331 227.32,119.34 L227.32,124 L224.48,124 L224.48,113.66 Z M237.98,124 L234.82,124 L231.28,113.66 L234.26,113.66 L236.44,120.72 L236.48,120.72 L238.66,113.66 L241.48,113.66 L237.98,124 Z M245.58,112.06 L242.74,112.06 L242.74,109.72 L245.58,109.72 L245.58,112.06 Z M242.74,113.66 L245.58,113.66 L245.58,124 L242.74,124 L242.74,113.66 Z M254.86,117.3 C254.673332,116.113327 253.973339,115.52 252.76,115.52 C252.306664,115.52 251.926668,115.623332 251.62,115.83 C251.313332,116.036668 251.063334,116.303332 250.87,116.63 C250.676666,116.956668 250.54,117.316665 250.46,117.71 C250.38,118.103335 250.34,118.493331 250.34,118.88 C250.34,119.253335 250.38,119.633331 250.46,120.02 C250.54,120.406669 250.669999,120.756665 250.85,121.07 C251.030001,121.383335 251.273332,121.639999 251.58,121.84 C251.886668,122.040001 252.259998,122.14 252.7,122.14 C253.380003,122.14 253.903331,121.950002 254.27,121.57 C254.636668,121.189998 254.866666,120.680003 254.96,120.04 L257.7,120.04 C257.513332,121.41334 256.980004,122.459996 256.1,123.18 C255.219996,123.900004 254.09334,124.26 252.72,124.26 C251.946663,124.26 251.23667,124.130001 250.59,123.87 C249.94333,123.609999 249.393336,123.246669 248.94,122.78 C248.486664,122.313331 248.133335,121.75667 247.88,121.11 C247.626665,120.46333 247.5,119.753337 247.5,118.98 C247.5,118.179996 247.616665,117.43667 247.85,116.75 C248.083334,116.06333 248.426664,115.470002 248.88,114.97 C249.333336,114.469998 249.886663,114.080001 250.54,113.8 C251.193337,113.519999 251.939996,113.38 252.78,113.38 C253.393336,113.38 253.98333,113.459999 254.55,113.62 C255.116669,113.780001 255.623331,114.023332 256.07,114.35 C256.516669,114.676668 256.879999,115.083331 257.16,115.57 C257.440001,116.056669 257.6,116.63333 257.64,117.3 L254.86,117.3 Z M266.26,117.72 C266.126666,116.999996 265.890002,116.453335 265.55,116.08 C265.209998,115.706665 264.693337,115.52 264,115.52 C263.546664,115.52 263.170001,115.596666 262.87,115.75 C262.569998,115.903334 262.330001,116.093332 262.15,116.32 C261.969999,116.546668 261.843334,116.786665 261.77,117.04 C261.696666,117.293335 261.653333,117.519999 261.64,117.72 L266.26,117.72 Z M261.64,119.52 C261.68,120.440005 261.913331,121.106665 262.34,121.52 C262.766669,121.933335 263.379996,122.14 264.18,122.14 C264.753336,122.14 265.246665,121.996668 265.66,121.71 C266.073335,121.423332 266.326666,121.120002 266.42,120.8 L268.92,120.8 C268.519998,122.040006 267.906671,122.926664 267.08,123.46 C266.253329,123.993336 265.253339,124.26 264.08,124.26 C263.266663,124.26 262.533337,124.130001 261.88,123.87 C261.226663,123.609999 260.673336,123.240002 260.22,122.76 C259.766664,122.279998 259.416668,121.70667 259.17,121.04 C258.923332,120.37333 258.8,119.640004 258.8,118.84 C258.8,118.066663 258.926665,117.34667 259.18,116.68 C259.433335,116.01333 259.793331,115.436669 260.26,114.95 C260.726669,114.463331 261.28333,114.080001 261.93,113.8 C262.57667,113.519999 263.293329,113.38 264.08,113.38 C264.960004,113.38 265.726663,113.549998 266.38,113.89 C267.033337,114.230002 267.569998,114.686664 267.99,115.26 C268.410002,115.833336 268.713332,116.486663 268.9,117.22 C269.086668,117.953337 269.153334,118.719996 269.1,119.52 L261.64,119.52 Z M272.98,120.64 C272.98,120.946668 273.043333,121.209999 273.17,121.43 C273.296667,121.650001 273.459999,121.829999 273.66,121.97 C273.860001,122.110001 274.089999,122.213333 274.35,122.28 C274.610001,122.346667 274.879999,122.38 275.16,122.38 C275.360001,122.38 275.569999,122.356667 275.79,122.31 C276.010001,122.263333 276.209999,122.19 276.39,122.09 C276.570001,121.989999 276.719999,121.856668 276.84,121.69 C276.960001,121.523332 277.02,121.313335 277.02,121.06 C277.02,120.633331 276.736669,120.313334 276.17,120.1 C275.60333,119.886666 274.813338,119.673334 273.8,119.46 C273.386665,119.366666 272.983335,119.256667 272.59,119.13 C272.196665,119.003333 271.846668,118.836668 271.54,118.63 C271.233332,118.423332 270.986668,118.163335 270.8,117.85 C270.613332,117.536665 270.52,117.153336 270.52,116.7 C270.52,116.03333 270.649999,115.486669 270.91,115.06 C271.170001,114.633331 271.513331,114.296668 271.94,114.05 C272.366669,113.803332 272.846664,113.63 273.38,113.53 C273.913336,113.43 274.459997,113.38 275.02,113.38 C275.580003,113.38 276.123331,113.433333 276.65,113.54 C277.176669,113.646667 277.646665,113.826665 278.06,114.08 C278.473335,114.333335 278.816665,114.669998 279.09,115.09 C279.363335,115.510002 279.526666,116.039997 279.58,116.68 L276.88,116.68 C276.84,116.133331 276.633335,115.763334 276.26,115.57 C275.886665,115.376666 275.446669,115.28 274.94,115.28 C274.779999,115.28 274.606668,115.29 274.42,115.31 C274.233332,115.33 274.063334,115.373333 273.91,115.44 C273.756666,115.506667 273.626667,115.603333 273.52,115.73 C273.413333,115.856667 273.36,116.026666 273.36,116.24 C273.36,116.493335 273.453332,116.699999 273.64,116.86 C273.826668,117.020001 274.069998,117.15 274.37,117.25 C274.670001,117.35 275.013331,117.44 275.4,117.52 C275.786669,117.6 276.179998,117.686666 276.58,117.78 C276.993335,117.873334 277.396665,117.986666 277.79,118.12 C278.183335,118.253334 278.533332,118.429999 278.84,118.65 C279.146668,118.870001 279.393332,119.143332 279.58,119.47 C279.766668,119.796668 279.86,120.199998 279.86,120.68 C279.86,121.360003 279.723335,121.929998 279.45,122.39 C279.176665,122.850002 278.820002,123.219999 278.38,123.5 C277.939998,123.780001 277.436669,123.976666 276.87,124.09 C276.30333,124.203334 275.72667,124.26 275.14,124.26 C274.539997,124.26 273.953336,124.200001 273.38,124.08 C272.806664,123.959999 272.296669,123.760001 271.85,123.48 C271.403331,123.199999 271.036668,122.830002 270.75,122.37 C270.463332,121.909998 270.306667,121.333337 270.28,120.64 L272.98,120.64 Z M296.94,107.46 L298.84,107.46 C298,108.84 297.36,110.22 296.92,111.6 C296.32,113.32 296.04,115.06 296.04,116.8 C296.04,118.52 296.32,120.26 296.92,122 C297.36,123.36 298,124.74 298.84,126.14 L296.94,126.14 C295.98,124.82 295.26,123.46 294.74,122.06 C294.12,120.38 293.82,118.62 293.82,116.82 C293.82,114.98 294.12,113.24 294.74,111.56 C295.26,110.12 295.98,108.76 296.94,107.46 Z M301.82,109.72 L304.96,109.72 L304.96,115.2 L310.74,115.2 L310.74,109.72 L313.88,109.72 L313.88,124 L310.74,124 L310.74,117.84 L304.96,117.84 L304.96,124 L301.82,124 L301.82,109.72 Z M316.22,116.84 C316.26,116.17333 316.426665,115.620002 316.72,115.18 C317.013335,114.739998 317.386664,114.386668 317.84,114.12 C318.293336,113.853332 318.803331,113.663334 319.37,113.55 C319.936669,113.436666 320.506664,113.38 321.08,113.38 C321.600003,113.38 322.126664,113.416666 322.66,113.49 C323.193336,113.563334 323.679998,113.706666 324.12,113.92 C324.560002,114.133334 324.919999,114.429998 325.2,114.81 C325.480001,115.190002 325.62,115.69333 325.62,116.32 L325.62,121.7 C325.62,122.166669 325.646666,122.613331 325.7,123.04 C325.753334,123.466669 325.846666,123.786666 325.98,124 L323.1,124 C323.046666,123.839999 323.003333,123.676668 322.97,123.51 C322.936667,123.343333 322.913333,123.173334 322.9,123 C322.446664,123.466669 321.913336,123.793332 321.3,123.98 C320.686664,124.166668 320.060003,124.26 319.42,124.26 C318.926664,124.26 318.466669,124.200001 318.04,124.08 C317.613331,123.959999 317.240002,123.773335 316.92,123.52 C316.599998,123.266665 316.350001,122.946669 316.17,122.56 C315.989999,122.173331 315.9,121.713336 315.9,121.18 C315.9,120.59333 316.003332,120.110002 316.21,119.73 C316.416668,119.349998 316.683332,119.046668 317.01,118.82 C317.336668,118.593332 317.709998,118.423334 318.13,118.31 C318.550002,118.196666 318.973331,118.106667 319.4,118.04 C319.826669,117.973333 320.246665,117.92 320.66,117.88 C321.073335,117.84 321.439998,117.78 321.76,117.7 C322.080002,117.62 322.333332,117.503334 322.52,117.35 C322.706668,117.196666 322.793333,116.973335 322.78,116.68 C322.78,116.373332 322.73,116.130001 322.63,115.95 C322.53,115.769999 322.396668,115.63 322.23,115.53 C322.063333,115.429999 321.870001,115.363333 321.65,115.33 C321.429999,115.296667 321.193335,115.28 320.94,115.28 C320.379997,115.28 319.940002,115.399999 319.62,115.64 C319.299998,115.880001 319.113334,116.279997 319.06,116.84 L316.22,116.84 Z M322.78,118.94 C322.659999,119.046667 322.510001,119.13 322.33,119.19 C322.149999,119.25 321.956668,119.3 321.75,119.34 C321.543332,119.38 321.326668,119.413333 321.1,119.44 C320.873332,119.466667 320.646668,119.5 320.42,119.54 C320.206666,119.58 319.996668,119.633333 319.79,119.7 C319.583332,119.766667 319.403334,119.856666 319.25,119.97 C319.096666,120.083334 318.973334,120.226666 318.88,120.4 C318.786666,120.573334 318.74,120.793332 318.74,121.06 C318.74,121.313335 318.786666,121.526666 318.88,121.7 C318.973334,121.873334 319.099999,122.009999 319.26,122.11 C319.420001,122.210001 319.606666,122.28 319.82,122.32 C320.033334,122.36 320.253332,122.38 320.48,122.38 C321.040003,122.38 321.473332,122.286668 321.78,122.1 C322.086668,121.913332 322.313333,121.690001 322.46,121.43 C322.606667,121.169999 322.696666,120.906668 322.73,120.64 C322.763333,120.373332 322.78,120.160001 322.78,120 L322.78,118.94 Z M330.74,112.06 L327.9,112.06 L327.9,109.72 L330.74,109.72 L330.74,112.06 Z M327.9,113.66 L330.74,113.66 L330.74,124 L327.9,124 L327.9,113.66 Z M332.98,113.66 L335.68,113.66 L335.68,115.1 L335.74,115.1 C336.100002,114.499997 336.566664,114.063335 337.14,113.79 C337.713336,113.516665 338.299997,113.38 338.9,113.38 C339.660004,113.38 340.283331,113.483332 340.77,113.69 C341.256669,113.896668 341.639999,114.183332 341.92,114.55 C342.200001,114.916669 342.396666,115.363331 342.51,115.89 C342.623334,116.416669 342.68,116.999997 342.68,117.64 L342.68,124 L339.84,124 L339.84,118.16 C339.84,117.306662 339.706668,116.670002 339.44,116.25 C339.173332,115.829998 338.700003,115.62 338.02,115.62 C337.246663,115.62 336.686668,115.849998 336.34,116.31 C335.993332,116.770002 335.82,117.526661 335.82,118.58 L335.82,124 L332.98,124 L332.98,113.66 Z M344.72,116.84 C344.76,116.17333 344.926665,115.620002 345.22,115.18 C345.513335,114.739998 345.886664,114.386668 346.34,114.12 C346.793336,113.853332 347.303331,113.663334 347.87,113.55 C348.43667,113.436666 349.006664,113.38 349.58,113.38 C350.100003,113.38 350.626664,113.416666 351.16,113.49 C351.693336,113.563334 352.179998,113.706666 352.62,113.92 C353.060002,114.133334 353.419999,114.429998 353.7,114.81 C353.980001,115.190002 354.12,115.69333 354.12,116.32 L354.12,121.7 C354.12,122.166669 354.146666,122.613331 354.2,123.04 C354.253334,123.466669 354.346666,123.786666 354.48,124 L351.6,124 C351.546666,123.839999 351.503334,123.676668 351.47,123.51 C351.436667,123.343333 351.413333,123.173334 351.4,123 C350.946664,123.466669 350.413336,123.793332 349.8,123.98 C349.186664,124.166668 348.560003,124.26 347.92,124.26 C347.426664,124.26 346.966669,124.200001 346.54,124.08 C346.113331,123.959999 345.740002,123.773335 345.42,123.52 C345.099998,123.266665 344.850001,122.946669 344.67,122.56 C344.489999,122.173331 344.4,121.713336 344.4,121.18 C344.4,120.59333 344.503332,120.110002 344.71,119.73 C344.916668,119.349998 345.183332,119.046668 345.51,118.82 C345.836668,118.593332 346.209998,118.423334 346.63,118.31 C347.050002,118.196666 347.473331,118.106667 347.9,118.04 C348.326669,117.973333 348.746665,117.92 349.16,117.88 C349.573335,117.84 349.939998,117.78 350.26,117.7 C350.580002,117.62 350.833332,117.503334 351.02,117.35 C351.206668,117.196666 351.293333,116.973335 351.28,116.68 C351.28,116.373332 351.230001,116.130001 351.13,115.95 C351.03,115.769999 350.896668,115.63 350.73,115.53 C350.563333,115.429999 350.370001,115.363333 350.15,115.33 C349.929999,115.296667 349.693335,115.28 349.44,115.28 C348.879997,115.28 348.440002,115.399999 348.12,115.64 C347.799998,115.880001 347.613334,116.279997 347.56,116.84 L344.72,116.84 Z M351.28,118.94 C351.159999,119.046667 351.010001,119.13 350.83,119.19 C350.649999,119.25 350.456668,119.3 350.25,119.34 C350.043332,119.38 349.826668,119.413333 349.6,119.44 C349.373332,119.466667 349.146668,119.5 348.92,119.54 C348.706666,119.58 348.496668,119.633333 348.29,119.7 C348.083332,119.766667 347.903334,119.856666 347.75,119.97 C347.596666,120.083334 347.473334,120.226666 347.38,120.4 C347.286666,120.573334 347.24,120.793332 347.24,121.06 C347.24,121.313335 347.286666,121.526666 347.38,121.7 C347.473334,121.873334 347.599999,122.009999 347.76,122.11 C347.920001,122.210001 348.106666,122.28 348.32,122.32 C348.533334,122.36 348.753332,122.38 348.98,122.38 C349.540003,122.38 349.973332,122.286668 350.28,122.1 C350.586668,121.913332 350.813333,121.690001 350.96,121.43 C351.106667,121.169999 351.196667,120.906668 351.23,120.64 C351.263334,120.373332 351.28,120.160001 351.28,120 L351.28,118.94 Z M356.32,113.66 L359.02,113.66 L359.02,115.1 L359.08,115.1 C359.440002,114.499997 359.906664,114.063335 360.48,113.79 C361.053336,113.516665 361.639997,113.38 362.24,113.38 C363.000004,113.38 363.623331,113.483332 364.11,113.69 C364.596669,113.896668 364.979999,114.183332 365.26,114.55 C365.540001,114.916669 365.736666,115.363331 365.85,115.89 C365.963334,116.416669 366.02,116.999997 366.02,117.64 L366.02,124 L363.18,124 L363.18,118.16 C363.18,117.306662 363.046668,116.670002 362.78,116.25 C362.513332,115.829998 362.040003,115.62 361.36,115.62 C360.586663,115.62 360.026668,115.849998 359.68,116.31 C359.333332,116.770002 359.16,117.526661 359.16,118.58 L359.16,124 L356.32,124 L356.32,113.66 Z M368.7,107.46 L370.6,107.46 C371.54,108.76 372.28,110.12 372.8,111.56 C373.4,113.24 373.72,114.98 373.72,116.82 C373.72,118.62 373.4,120.38 372.8,122.06 C372.28,123.46 371.54,124.82 370.6,126.14 L368.7,126.14 C369.52,124.74 370.16,123.36 370.62,122 C371.2,120.26 371.5,118.52 371.5,116.8 C371.5,115.06 371.2,113.32 370.62,111.6 C370.16,110.22 369.52,108.84 368.7,107.46 Z M398,114.52 C397.946666,114.159998 397.826668,113.830002 397.64,113.53 C397.453332,113.229998 397.220001,112.966668 396.94,112.74 C396.659999,112.513332 396.343335,112.336667 395.99,112.21 C395.636665,112.083333 395.266669,112.02 394.88,112.02 C394.17333,112.02 393.573336,112.156665 393.08,112.43 C392.586664,112.703335 392.186668,113.069998 391.88,113.53 C391.573332,113.990002 391.350001,114.51333 391.21,115.1 C391.069999,115.68667 391,116.29333 391,116.92 C391,117.520003 391.069999,118.10333 391.21,118.67 C391.350001,119.23667 391.573332,119.746664 391.88,120.2 C392.186668,120.653336 392.586664,121.016665 393.08,121.29 C393.573336,121.563335 394.17333,121.7 394.88,121.7 C395.840005,121.7 396.589997,121.40667 397.13,120.82 C397.670003,120.23333 397.999999,119.460005 398.12,118.5 L401.16,118.5 C401.08,119.393338 400.873335,120.199996 400.54,120.92 C400.206665,121.640004 399.766669,122.253331 399.22,122.76 C398.673331,123.266669 398.033337,123.653332 397.3,123.92 C396.566663,124.186668 395.760004,124.32 394.88,124.32 C393.786661,124.32 392.803338,124.130002 391.93,123.75 C391.056662,123.369998 390.320003,122.84667 389.72,122.18 C389.119997,121.51333 388.660002,120.730005 388.34,119.83 C388.019998,118.929996 387.86,117.960005 387.86,116.92 C387.86,115.853328 388.019998,114.863338 388.34,113.95 C388.660002,113.036662 389.119997,112.240003 389.72,111.56 C390.320003,110.879997 391.056662,110.346669 391.93,109.96 C392.803338,109.573331 393.786661,109.38 394.88,109.38 C395.666671,109.38 396.409997,109.493332 397.11,109.72 C397.810004,109.946668 398.436664,110.276665 398.99,110.71 C399.543336,111.143336 399.999998,111.679997 400.36,112.32 C400.720002,112.960003 400.946666,113.693329 401.04,114.52 L398,114.52 Z M405.52,118.84 C405.52,119.253335 405.56,119.656665 405.64,120.05 C405.72,120.443335 405.856666,120.796665 406.05,121.11 C406.243334,121.423335 406.499998,121.673332 406.82,121.86 C407.140002,122.046668 407.539998,122.14 408.02,122.14 C408.500002,122.14 408.903332,122.046668 409.23,121.86 C409.556668,121.673332 409.816666,121.423335 410.01,121.11 C410.203334,120.796665 410.34,120.443335 410.42,120.05 C410.5,119.656665 410.54,119.253335 410.54,118.84 C410.54,118.426665 410.5,118.020002 410.42,117.62 C410.34,117.219998 410.203334,116.866668 410.01,116.56 C409.816666,116.253332 409.556668,116.003334 409.23,115.81 C408.903332,115.616666 408.500002,115.52 408.02,115.52 C407.539998,115.52 407.140002,115.616666 406.82,115.81 C406.499998,116.003334 406.243334,116.253332 406.05,116.56 C405.856666,116.866668 405.72,117.219998 405.64,117.62 C405.56,118.020002 405.52,118.426665 405.52,118.84 Z M402.68,118.84 C402.68,118.013329 402.806665,117.263337 403.06,116.59 C403.313335,115.916663 403.673331,115.343336 404.14,114.87 C404.606669,114.396664 405.166663,114.030001 405.82,113.77 C406.473337,113.509999 407.206663,113.38 408.02,113.38 C408.833337,113.38 409.569997,113.509999 410.23,113.77 C410.890003,114.030001 411.453331,114.396664 411.92,114.87 C412.386669,115.343336 412.746665,115.916663 413,116.59 C413.253335,117.263337 413.38,118.013329 413.38,118.84 C413.38,119.666671 413.253335,120.41333 413,121.08 C412.746665,121.74667 412.386669,122.316664 411.92,122.79 C411.453331,123.263336 410.890003,123.626665 410.23,123.88 C409.569997,124.133335 408.833337,124.26 408.02,124.26 C407.206663,124.26 406.473337,124.133335 405.82,123.88 C405.166663,123.626665 404.606669,123.263336 404.14,122.79 C403.673331,122.316664 403.313335,121.74667 403.06,121.08 C402.806665,120.41333 402.68,119.666671 402.68,118.84 Z M415.22,113.66 L417.92,113.66 L417.92,115.58 L417.96,115.58 C418.093334,115.259998 418.273332,114.963335 418.5,114.69 C418.726668,114.416665 418.986665,114.183334 419.28,113.99 C419.573335,113.796666 419.886665,113.646667 420.22,113.54 C420.553335,113.433333 420.899998,113.38 421.26,113.38 C421.446668,113.38 421.653332,113.413333 421.88,113.48 L421.88,116.12 C421.746666,116.093333 421.586668,116.07 421.4,116.05 C421.213332,116.03 421.033334,116.02 420.86,116.02 C420.339997,116.02 419.900002,116.106666 419.54,116.28 C419.179998,116.453334 418.890001,116.689999 418.67,116.99 C418.449999,117.290002 418.293334,117.639998 418.2,118.04 C418.106666,118.440002 418.06,118.873331 418.06,119.34 L418.06,124 L415.22,124 L415.22,113.66 Z M428.22,122.14 C428.686669,122.14 429.076665,122.046668 429.39,121.86 C429.703335,121.673332 429.956666,121.430002 430.15,121.13 C430.343334,120.829999 430.48,120.480002 430.56,120.08 C430.64,119.679998 430.68,119.273335 430.68,118.86 C430.68,118.446665 430.636667,118.040002 430.55,117.64 C430.463333,117.239998 430.320001,116.883335 430.12,116.57 C429.919999,116.256665 429.663335,116.003334 429.35,115.81 C429.036665,115.616666 428.653336,115.52 428.2,115.52 C427.733331,115.52 427.343335,115.616666 427.03,115.81 C426.716665,116.003334 426.463334,116.253332 426.27,116.56 C426.076666,116.866668 425.94,117.219998 425.86,117.62 C425.78,118.020002 425.74,118.433331 425.74,118.86 C425.74,119.273335 425.783333,119.679998 425.87,120.08 C425.956667,120.480002 426.096666,120.829999 426.29,121.13 C426.483334,121.430002 426.739998,121.673332 427.06,121.86 C427.380002,122.046668 427.766664,122.14 428.22,122.14 Z M423,113.66 L425.7,113.66 L425.7,114.98 L425.74,114.98 C426.086668,114.419997 426.526664,114.013335 427.06,113.76 C427.593336,113.506665 428.179997,113.38 428.82,113.38 C429.633337,113.38 430.33333,113.533332 430.92,113.84 C431.50667,114.146668 431.993331,114.553331 432.38,115.06 C432.766669,115.566669 433.053332,116.156663 433.24,116.83 C433.426668,117.503337 433.52,118.206663 433.52,118.94 C433.52,119.633337 433.426668,120.299997 433.24,120.94 C433.053332,121.580003 432.770002,122.146664 432.39,122.64 C432.009998,123.133336 431.53667,123.526665 430.97,123.82 C430.403331,124.113335 429.740004,124.26 428.98,124.26 C428.339997,124.26 427.750003,124.130001 427.21,123.87 C426.669997,123.609999 426.226668,123.226669 425.88,122.72 L425.84,122.72 L425.84,127.62 L423,127.62 L423,113.66 Z M437.74,118.84 C437.74,119.253335 437.78,119.656665 437.86,120.05 C437.94,120.443335 438.076666,120.796665 438.27,121.11 C438.463334,121.423335 438.719998,121.673332 439.04,121.86 C439.360002,122.046668 439.759998,122.14 440.24,122.14 C440.720002,122.14 441.123332,122.046668 441.45,121.86 C441.776668,121.673332 442.036666,121.423335 442.23,121.11 C442.423334,120.796665 442.56,120.443335 442.64,120.05 C442.72,119.656665 442.76,119.253335 442.76,118.84 C442.76,118.426665 442.72,118.020002 442.64,117.62 C442.56,117.219998 442.423334,116.866668 442.23,116.56 C442.036666,116.253332 441.776668,116.003334 441.45,115.81 C441.123332,115.616666 440.720002,115.52 440.24,115.52 C439.759998,115.52 439.360002,115.616666 439.04,115.81 C438.719998,116.003334 438.463334,116.253332 438.27,116.56 C438.076666,116.866668 437.94,117.219998 437.86,117.62 C437.78,118.020002 437.74,118.426665 437.74,118.84 Z M434.9,118.84 C434.9,118.013329 435.026665,117.263337 435.28,116.59 C435.533335,115.916663 435.893331,115.343336 436.36,114.87 C436.826669,114.396664 437.386663,114.030001 438.04,113.77 C438.693337,113.509999 439.426663,113.38 440.24,113.38 C441.053337,113.38 441.789997,113.509999 442.45,113.77 C443.110003,114.030001 443.673331,114.396664 444.14,114.87 C444.606669,115.343336 444.966665,115.916663 445.22,116.59 C445.473335,117.263337 445.6,118.013329 445.6,118.84 C445.6,119.666671 445.473335,120.41333 445.22,121.08 C444.966665,121.74667 444.606669,122.316664 444.14,122.79 C443.673331,123.263336 443.110003,123.626665 442.45,123.88 C441.789997,124.133335 441.053337,124.26 440.24,124.26 C439.426663,124.26 438.693337,124.133335 438.04,123.88 C437.386663,123.626665 436.826669,123.263336 436.36,122.79 C435.893331,122.316664 435.533335,121.74667 435.28,121.08 C435.026665,120.41333 434.9,119.666671 434.9,118.84 Z M447.44,113.66 L450.14,113.66 L450.14,115.58 L450.18,115.58 C450.313334,115.259998 450.493332,114.963335 450.72,114.69 C450.946668,114.416665 451.206665,114.183334 451.5,113.99 C451.793335,113.796666 452.106665,113.646667 452.44,113.54 C452.773335,113.433333 453.119998,113.38 453.48,113.38 C453.666668,113.38 453.873332,113.413333 454.1,113.48 L454.1,116.12 C453.966666,116.093333 453.806668,116.07 453.62,116.05 C453.433332,116.03 453.253334,116.02 453.08,116.02 C452.559997,116.02 452.120002,116.106666 451.76,116.28 C451.399998,116.453334 451.110001,116.689999 450.89,116.99 C450.669999,117.290002 450.513334,117.639998 450.42,118.04 C450.326666,118.440002 450.28,118.873331 450.28,119.34 L450.28,124 L447.44,124 L447.44,113.66 Z M455.1,116.84 C455.14,116.17333 455.306665,115.620002 455.6,115.18 C455.893335,114.739998 456.266664,114.386668 456.72,114.12 C457.173336,113.853332 457.683331,113.663334 458.25,113.55 C458.81667,113.436666 459.386664,113.38 459.96,113.38 C460.480003,113.38 461.006664,113.416666 461.54,113.49 C462.073336,113.563334 462.559998,113.706666 463,113.92 C463.440002,114.133334 463.799999,114.429998 464.08,114.81 C464.360001,115.190002 464.5,115.69333 464.5,116.32 L464.5,121.7 C464.5,122.166669 464.526666,122.613331 464.58,123.04 C464.633334,123.466669 464.726666,123.786666 464.86,124 L461.98,124 C461.926666,123.839999 461.883334,123.676668 461.85,123.51 C461.816667,123.343333 461.793333,123.173334 461.78,123 C461.326664,123.466669 460.793336,123.793332 460.18,123.98 C459.566664,124.166668 458.940003,124.26 458.3,124.26 C457.806664,124.26 457.346669,124.200001 456.92,124.08 C456.493331,123.959999 456.120002,123.773335 455.8,123.52 C455.479998,123.266665 455.230001,122.946669 455.05,122.56 C454.869999,122.173331 454.78,121.713336 454.78,121.18 C454.78,120.59333 454.883332,120.110002 455.09,119.73 C455.296668,119.349998 455.563332,119.046668 455.89,118.82 C456.216668,118.593332 456.589998,118.423334 457.01,118.31 C457.430002,118.196666 457.853331,118.106667 458.28,118.04 C458.706669,117.973333 459.126665,117.92 459.54,117.88 C459.953335,117.84 460.319998,117.78 460.64,117.7 C460.960002,117.62 461.213332,117.503334 461.4,117.35 C461.586668,117.196666 461.673333,116.973335 461.66,116.68 C461.66,116.373332 461.610001,116.130001 461.51,115.95 C461.41,115.769999 461.276668,115.63 461.11,115.53 C460.943333,115.429999 460.750001,115.363333 460.53,115.33 C460.309999,115.296667 460.073335,115.28 459.82,115.28 C459.259997,115.28 458.820002,115.399999 458.5,115.64 C458.179998,115.880001 457.993334,116.279997 457.94,116.84 L455.1,116.84 Z M461.66,118.94 C461.539999,119.046667 461.390001,119.13 461.21,119.19 C461.029999,119.25 460.836668,119.3 460.63,119.34 C460.423332,119.38 460.206668,119.413333 459.98,119.44 C459.753332,119.466667 459.526668,119.5 459.3,119.54 C459.086666,119.58 458.876668,119.633333 458.67,119.7 C458.463332,119.766667 458.283334,119.856666 458.13,119.97 C457.976666,120.083334 457.853334,120.226666 457.76,120.4 C457.666666,120.573334 457.62,120.793332 457.62,121.06 C457.62,121.313335 457.666666,121.526666 457.76,121.7 C457.853334,121.873334 457.979999,122.009999 458.14,122.11 C458.300001,122.210001 458.486666,122.28 458.7,122.32 C458.913334,122.36 459.133332,122.38 459.36,122.38 C459.920003,122.38 460.353332,122.286668 460.66,122.1 C460.966668,121.913332 461.193333,121.690001 461.34,121.43 C461.486667,121.169999 461.576667,120.906668 461.61,120.64 C461.643334,120.373332 461.66,120.160001 461.66,120 L461.66,118.94 Z M470.3,113.66 L472.38,113.66 L472.38,115.56 L470.3,115.56 L470.3,120.68 C470.3,121.160002 470.379999,121.479999 470.54,121.64 C470.700001,121.800001 471.019998,121.88 471.5,121.88 C471.660001,121.88 471.813333,121.873333 471.96,121.86 C472.106667,121.846667 472.246666,121.826667 472.38,121.8 L472.38,124 C472.139999,124.04 471.873335,124.066667 471.58,124.08 C471.286665,124.093333 471.000001,124.1 470.72,124.1 C470.279998,124.1 469.863335,124.07 469.47,124.01 C469.076665,123.95 468.730002,123.833334 468.43,123.66 C468.129999,123.486666 467.893334,123.240002 467.72,122.92 C467.546666,122.599998 467.46,122.180003 467.46,121.66 L467.46,115.56 L465.74,115.56 L465.74,113.66 L467.46,113.66 L467.46,110.56 L470.3,110.56 L470.3,113.66 Z M476.66,112.06 L473.82,112.06 L473.82,109.72 L476.66,109.72 L476.66,112.06 Z M473.82,113.66 L476.66,113.66 L476.66,124 L473.82,124 L473.82,113.66 Z M481.42,118.84 C481.42,119.253335 481.46,119.656665 481.54,120.05 C481.62,120.443335 481.756666,120.796665 481.95,121.11 C482.143334,121.423335 482.399998,121.673332 482.72,121.86 C483.040002,122.046668 483.439998,122.14 483.92,122.14 C484.400002,122.14 484.803332,122.046668 485.13,121.86 C485.456668,121.673332 485.716666,121.423335 485.91,121.11 C486.103334,120.796665 486.24,120.443335 486.32,120.05 C486.4,119.656665 486.44,119.253335 486.44,118.84 C486.44,118.426665 486.4,118.020002 486.32,117.62 C486.24,117.219998 486.103334,116.866668 485.91,116.56 C485.716666,116.253332 485.456668,116.003334 485.13,115.81 C484.803332,115.616666 484.400002,115.52 483.92,115.52 C483.439998,115.52 483.040002,115.616666 482.72,115.81 C482.399998,116.003334 482.143334,116.253332 481.95,116.56 C481.756666,116.866668 481.62,117.219998 481.54,117.62 C481.46,118.020002 481.42,118.426665 481.42,118.84 Z M478.58,118.84 C478.58,118.013329 478.706665,117.263337 478.96,116.59 C479.213335,115.916663 479.573331,115.343336 480.04,114.87 C480.506669,114.396664 481.066663,114.030001 481.72,113.77 C482.373337,113.509999 483.106663,113.38 483.92,113.38 C484.733337,113.38 485.469997,113.509999 486.13,113.77 C486.790003,114.030001 487.353331,114.396664 487.82,114.87 C488.286669,115.343336 488.646665,115.916663 488.9,116.59 C489.153335,117.263337 489.28,118.013329 489.28,118.84 C489.28,119.666671 489.153335,120.41333 488.9,121.08 C488.646665,121.74667 488.286669,122.316664 487.82,122.79 C487.353331,123.263336 486.790003,123.626665 486.13,123.88 C485.469997,124.133335 484.733337,124.26 483.92,124.26 C483.106663,124.26 482.373337,124.133335 481.72,123.88 C481.066663,123.626665 480.506669,123.263336 480.04,122.79 C479.573331,122.316664 479.213335,121.74667 478.96,121.08 C478.706665,120.41333 478.58,119.666671 478.58,118.84 Z M491.12,113.66 L493.82,113.66 L493.82,115.1 L493.88,115.1 C494.240002,114.499997 494.706664,114.063335 495.28,113.79 C495.853336,113.516665 496.439997,113.38 497.04,113.38 C497.800004,113.38 498.423331,113.483332 498.91,113.69 C499.396669,113.896668 499.779999,114.183332 500.06,114.55 C500.340001,114.916669 500.536666,115.363331 500.65,115.89 C500.763334,116.416669 500.82,116.999997 500.82,117.64 L500.82,124 L497.98,124 L497.98,118.16 C497.98,117.306662 497.846668,116.670002 497.58,116.25 C497.313332,115.829998 496.840003,115.62 496.16,115.62 C495.386663,115.62 494.826668,115.849998 494.48,116.31 C494.133332,116.770002 493.96,117.526661 493.96,118.58 L493.96,124 L491.12,124 L491.12,113.66 Z" id="Toyota-Mobility-Serv" fill="#FFFFFF"></path>
        </g>
    </g>
</svg>